<svg transform="scale(1)" version="1.1" id="aBtzZNzr0m" xmlns="http://www.w3.org/2000/svg" xmlns:xlink="http://www.w3.org/1999/xlink" x="0px" y="0px" viewBox="0 0 500 500" xml:space="preserve" class="pbimage_pbimage__wrapper__image__0LEis false"><title>Artificial Intelligence 4</title><style type="text/css"> .st0{fill:#231F20;} .st1{fill:#FFFFFF;} .st2{fill:#5DDCFC;} .st3{fill:#D1D3D4;} .st4{fill:none;}
 .st3{fill:#D1D3D4;}
 .st2{fill:#9b4890;}
 .st1{fill:#FFFFFF;}
 .st0{fill:#231F20;}</style><g id="character_2"><polygon class="st0" points="284.9,233.7 287.6,251.3 312.6,247.2 308.5,230.3 	" fill="#231F20"></polygon><polygon class="st0" points="248.3,231.2 246.6,248.9 271.8,251.1 272,233.8 	" fill="#231F20"></polygon><g id="Character"><path class="st1" d="M242.4,76.5c0,0-15.8,17.2-19.7,18.9c-5.3,2.3-20.5,3.6-27.9,3.8c-3.5,0.3-19.1-3.6-20.6,1.2
			c-0.5,0.7-0.2,3.2,0.1,4c0.4,1.4,2.2,1.6,3.4,1.8c3.6,0.5,7.3,1,11,1.2l-4.2,2.4c-0.1,0.1-0.2,0.1-0.3,0.2
			c-0.2,0.3,0.2,0.7,0.6,0.8c1.3,0.3,2.6,0.2,3.8-0.2c4.1-0.9,7.3-1.8,11.4-1.7c3.7,0.1,7.3,0.1,11,0c5.7-0.2,17.3-0.1,21.7-4.4
			c8.5-5,19.6-17,19.6-17"></path><path class="st0" d="M186.1,111.8c-0.5,0-1-0.1-1.6-0.2c-0.5-0.1-0.9-0.4-1.1-0.9c-0.1-0.3-0.1-0.6,0-0.9c0.1-0.2,0.3-0.4,0.6-0.5
			l2.2-1.2c-2.9-0.3-5.8-0.6-8.6-1h-0.1c-1.3-0.2-3.4-0.5-3.9-2.3c0,0-0.8-3.2,0-4.5c1.3-3.9,9.5-2.9,16.1-2
			c1.7,0.3,3.4,0.4,5.1,0.4c8.2-0.2,22.7-1.6,27.7-3.8c3.1-1.3,15.1-14,19.4-18.8c0.3-0.3,0.8-0.3,1.1,0c0.3,0.3,0.3,0.8,0.1,1.1
			c0,0,0,0,0,0c-0.6,0.7-15.9,17.4-20,19.1c-5.7,2.4-21.8,3.7-28.2,3.9c-1.8,0-3.6-0.2-5.4-0.5c-5.1-0.7-13.6-1.7-14.5,1.1
			c0,0.1-0.1,0.2-0.1,0.2c-0.2,1.1-0.1,2.2,0.2,3.3c0.2,0.8,1.4,1,2.7,1.2h0.1c3.5,0.5,7.2,0.9,10.9,1.2c0.3,0,0.6,0.3,0.7,0.6
			c0.1,0.3-0.1,0.7-0.4,0.8l-3.7,2.1c1,0.1,2.1,0,3.1-0.3l2-0.4c3.1-0.8,6.3-1.3,9.6-1.3c4,0.1,7.6,0.1,11,0h1.6
			c5.9-0.2,15.8-0.4,19.7-4.2l0.1-0.1c8.3-4.9,19.4-16.7,19.5-16.8c0.3-0.3,0.8-0.2,1.1,0.1c0.2,0.3,0.2,0.6,0,0.9
			c-0.5,0.5-11.3,12-19.7,17.1c-4.3,4.1-14.5,4.4-20.6,4.5H211c-3.4,0.1-7,0.1-11,0c-3.1,0-6.2,0.4-9.2,1.2l-2.1,0.5
			C187.9,111.7,187,111.8,186.1,111.8z"></path><path class="st2" d="M256.2,69.3c0,0,19.5-4.9,24-0.7c4.8,4.6,11.3,14.6,18.8,29.3c0.1,1.2-4.5,1.5-4.5,2.7
			c0.7,17-5.6,28.9-5.6,28.9l-44.2-0.4c0,0-7.7-44-5.2-51.1S256.2,69.3,256.2,69.3z"></path><path class="st2" d="M288.9,129.5c0,0,5,8.6,6.5,15.3s18,93.7,18,93.7l-42.4,4.2l-27.3-1.5l1.2-114L288.9,129.5z"></path><polygon class="st0" points="263.8,71.3 278.8,229.9 259.9,225.8 248.8,75 		"></polygon><path class="st0" d="M252.4,64.6c0.8,0.7,1.7,1.4,2.6,2c3.6,1.8,7.9,1.7,11.4-0.4c8.2-4.8,7.4-14.7,5.1-22.6
			c-0.9-3.2-3.7-9.9-7.9-6.2c1.2-1.1-4.3-4-5.1-4.3c-5.8-1.9-11.5,1.7-14.5,6.5c-1.8,2.7-3.2,5.6-4.4,8.7c-1.1,3.3,0.6,7.8,2.6,10.4
			c1.6,2.1,3.7,3.7,6.1,4.6c1.1,0.5,2.5,0.5,3.6,1.1C252.2,64.5,252.3,64.5,252.4,64.6L252.4,64.6z"></path><path class="st1" d="M245,46.1c0,0-2.9,7.4-1.7,13.1c0.6,3.3,3,5.9,6.2,6.7l-0.3,10c0,0-0.2,5.1,6.1,4.5c3.7-0.4,7-2.6,8.6-6
			l1.2-18.5c0,0-7-4.3-6.2-10.9c-2.3,1.6-5,2.5-7.8,2.9C246.9,48.2,245,46.1,245,46.1z"></path><path class="st0" d="M254.4,81.2c-1.5,0.1-3.1-0.4-4.2-1.4c-1-1-1.6-2.4-1.6-3.9l0.2-9.4c-3.2-1-5.6-3.7-6.2-7.1
			c-1.2-5.8,1.6-13.2,1.8-13.5c0.2-0.4,0.6-0.6,1-0.4c0.1,0,0.2,0.1,0.3,0.2c0.1,0.1,1.8,1.8,5.5,1.6c2.7-0.3,5.2-1.2,7.4-2.7
			c0.2-0.2,0.6-0.2,0.8,0c0.3,0.2,0.4,0.4,0.4,0.7c-0.7,6.1,5.8,10.1,5.9,10.2c0.3,0.1,0.4,0.4,0.4,0.7l-1.2,18.4
			c0,0.1,0,0.2-0.1,0.2c-1.7,3.6-5.2,6.1-9.2,6.5C255.1,81.2,254.8,81.2,254.4,81.2z M245.4,47.3c-0.7,2.2-2.2,7.5-1.3,11.7
			c0.5,3,2.7,5.3,5.6,6.1c0.4,0.1,0.6,0.4,0.6,0.8l-0.3,10c0,1,0.4,2,1.1,2.8c1.2,0.9,2.7,1.3,4.2,1c3.4-0.3,6.4-2.4,7.9-5.4
			l1.1-17.9c-1.4-1-6.1-4.6-6.3-9.9c-2.1,1.2-4.5,2-6.9,2.2C249.2,48.9,247.1,48.4,245.4,47.3z M245,46.1L245,46.1z"></path><path class="st1" d="M261.8,54.5c0,0,3.3-6.9,6.7-2.4s-1.8,9.2-4.9,8.7"></path><path class="st0" d="M264,61.6c-0.2,0-0.4,0-0.6,0c-0.4-0.1-0.7-0.4-0.6-0.9c0.1-0.4,0.5-0.7,0.9-0.6c1.3,0.2,3.4-0.8,4.5-2.7
			c1-1.5,0.9-3.5-0.3-4.8c-0.4-0.7-1.2-1.2-2-1.2c-1.5,0.2-3,2.6-3.4,3.5c-0.2,0.4-0.7,0.5-1,0.3c-0.3-0.2-0.4-0.6-0.3-0.9
			c0.2-0.4,2-4.1,4.6-4.3c1.4-0.1,2.6,0.6,3.3,1.8c1.5,1.9,1.7,4.5,0.4,6.5C268.3,60.2,266.2,61.4,264,61.6z"></path><path class="st0" d="M249.5,65.8c0,0,5.4,0.8,8.5,0.1c0,0-3.6,7.8-8.7,7.7L249.5,65.8L249.5,65.8z"></path><path class="st0" d="M249.5,74.4h-0.2c-0.4,0-0.7-0.4-0.7-0.8c0,0,0,0,0,0l0.2-7.8c0-0.2,0.1-0.4,0.3-0.6c0.2-0.1,0.4-0.2,0.6-0.2
			c0,0,5.2,0.8,8.2,0.1c0.3-0.1,0.6,0,0.8,0.3c0.2,0.2,0.2,0.5,0.1,0.8C258.5,66.6,254.9,74.4,249.5,74.4z M250.3,66.7l-0.2,6.1
			c3-0.4,5.4-4,6.5-5.9C254.5,67.1,252.4,67,250.3,66.7z"></path><ellipse class="st0" transform="matrix(7.967465e-02 -0.9968 0.9968 7.967465e-02 182.5583 302.4145)" cx="255.1" cy="52.3" rx="1.4" ry="0.8"></ellipse><ellipse class="st0" transform="matrix(7.974522e-02 -0.9968 0.9968 7.974522e-02 176.0623 292.7562)" cx="246.6" cy="51" rx="1.4" ry="0.8"></ellipse><polygon class="st2" points="242.6,74.1 225.8,91.3 235.8,108.5 248.4,101 		"></polygon></g><path class="st0" d="M249.4,58.9c-0.1,0-0.2,0-0.3-0.1l-2.3-1c-0.2-0.1-0.3-0.3-0.4-0.5c-0.1-0.2,0-0.4,0.1-0.6l2.3-3.8
		c0.2-0.3,0.7-0.5,1-0.3c0,0,0,0,0,0c0.3,0.2,0.5,0.6,0.3,1l-1.8,3.1l1.5,0.7c0.4,0.2,0.6,0.6,0.4,1c0,0,0,0,0,0
		C249.9,58.7,249.7,58.9,249.4,58.9z" fill="#231F20"></path><path class="st0" d="M248.8,62.3c-0.4,0-0.7-0.3-0.7-0.7c-0.1-0.4,0.2-0.8,0.6-0.8c0,0,0,0,0,0l3.5-0.5c0.4,0,0.8,0.2,0.8,0.7
		c0.1,0.4-0.2,0.8-0.6,0.8c0,0,0,0,0,0L248.8,62.3L248.8,62.3z" fill="#231F20"></path><path class="st0" d="M241.7,110.7c-0.4,0-0.7-0.3-0.7-0.7c0,0-0.3-2.1-0.6-4.4s1-16.5,1-17.1c0.1-0.4,0.5-0.7,0.9-0.6
		c0.4,0.1,0.6,0.4,0.6,0.8c-0.4,4.1-1.3,15-1,16.8c0.3,2.2,0.6,4.3,0.6,4.3c0.1,0.4-0.2,0.8-0.6,0.8c0,0,0,0,0,0L241.7,110.7z" fill="#231F20"></path><path class="st1" d="M280.4,256.9c0,0,2.2-6.3,6.3-8.1s15.1,0.2,15.1,0.2l8.6-1.8l1.1,5.2c-5.3,4.2-11.3,7.4-17.8,9.5
		C285.2,264.4,279,262.1,280.4,256.9z" fill="#FFFFFF"></path><path class="st0" d="M287.2,263.7c-2.8,0-5-0.7-6.4-2c-1.3-1.3-1.8-3.2-1.2-4.9c0,0,0,0,0-0.1c0.1-0.3,2.4-6.6,6.7-8.5
		c4-1.8,14-0.1,15.4,0.1l8.4-1.8c0.4-0.1,0.8,0.2,0.9,0.6l1.1,5.2c0.1,0.3,0,0.6-0.2,0.7c-5.4,4.3-11.5,7.5-18.1,9.6
		C291.7,263.3,289.5,263.6,287.2,263.7z M281.1,257.1c-0.4,1.2-0.1,2.5,0.8,3.4c2,1.9,6.5,2.1,11.5,0.6c6.2-2,12-5,17.2-9l-0.9-4
		l-7.8,1.6c-0.1,0-0.2,0-0.3,0c-0.1,0-10.9-2-14.6-0.3C283.4,251.1,281.2,256.7,281.1,257.1z" fill="#231F20"></path><path class="st1" d="M237.1,255.8c0,0,0.4-10.8,10.6-10c4.4,0.4,13.8,4.1,13.8,4.1l7.1,1.2l0.5,4.5c-5.5,1.9-11.1,3.2-16.9,4.1
		C243.5,261,236.4,260.3,237.1,255.8z" fill="#FFFFFF"></path><path class="st0" d="M245.1,261c-3.1,0-6.1-0.5-7.7-2c-0.8-0.9-1.2-2.1-1-3.3c0-0.5,0.4-5.4,3.8-8.4c2.1-1.8,4.9-2.6,7.7-2.2
		c4.3,0.4,13,3.7,13.9,4.1l7,1.1c0.3,0,0.6,0.3,0.6,0.7l0.5,4.5c0,0.3-0.2,0.7-0.5,0.8c-5.5,1.9-11.2,3.3-17,4.1
		C250,260.8,247.5,261,245.1,261z M246.6,246.5c-2-0.1-4,0.6-5.5,1.9c-3,2.7-3.3,7.4-3.3,7.4s0,0.1,0,0.1c-0.2,0.7,0.1,1.5,0.6,2
		c1.7,1.7,6.8,2,13.6,1c5.5-0.8,10.9-2.1,16.2-3.8l-0.3-3.3l-6.5-1.1c-0.1,0-0.1,0-0.2,0c-0.1,0-9.3-3.7-13.6-4
		C247.3,246.5,247,246.5,246.6,246.5z M237.1,255.8L237.1,255.8z" fill="#231F20"></path></g><g id="stairs"><path class="st0" d="M346.3,390c-0.4,0-0.7-0.3-0.7-0.6l-51-285.7c-0.1-0.4,0.2-0.8,0.6-0.9c0.4-0.1,0.8,0.2,0.9,0.6l51,285.7
		c0.1,0.4-0.2,0.8-0.6,0.9L346.3,390z"></path><path class="st0" d="M281.2,390c-0.4,0-0.7-0.3-0.7-0.6l-31.4-175.7v-0.1l-19.6-109.9c-0.1-0.4,0.2-0.8,0.6-0.9
		c0.4-0.1,0.8,0.2,0.9,0.6l19.6,109.8v0.1l31.4,175.8C282,389.5,281.7,389.9,281.2,390L281.2,390z"></path><path class="st0" d="M301.9,140.9h-65.1c-0.4,0-0.8-0.3-0.8-0.8s0.3-0.8,0.8-0.8h65.1c0.4,0,0.7,0.3,0.8,0.8
		C302.6,140.6,302.3,140.9,301.9,140.9z"></path><path class="st0" d="M308.4,177.6h-65.1c-0.4,0-0.8-0.3-0.8-0.8s0.3-0.8,0.8-0.8h65.1c0.4,0,0.8,0.3,0.8,0.8
		S308.8,177.6,308.4,177.6L308.4,177.6z"></path><path class="st0" d="M315,214.2h-65.2c-0.4,0-0.8-0.3-0.8-0.8s0.3-0.8,0.8-0.8H315c0.4,0,0.8,0.3,0.8,0.8S315.4,214.2,315,214.2z"></path><path class="st0" d="M321.5,250.8h-65.2c-0.4,0-0.8-0.3-0.8-0.8s0.3-0.8,0.8-0.8h65.1c0.4,0,0.8,0.3,0.8,0.8
		S321.9,250.8,321.5,250.8L321.5,250.8z"></path><path class="st0" d="M328,287.5h-65.1c-0.4,0-0.8-0.3-0.8-0.8s0.3-0.8,0.8-0.8H328c0.4,0,0.8,0.3,0.8,0.8S328.5,287.5,328,287.5z"></path><path class="st0" d="M334.6,324.1h-65.1c-0.4,0-0.8-0.3-0.8-0.8s0.3-0.8,0.8-0.8h65.1c0.4,0,0.8,0.3,0.8,0.8S335,324.1,334.6,324.1
		z"></path><path class="st0" d="M341.1,360.8H276c-0.4,0-0.8-0.3-0.8-0.8s0.3-0.8,0.8-0.8h65.1c0.4,0,0.8,0.3,0.8,0.8S341.6,360.8,341.1,360.8
		L341.1,360.8z"></path></g><g id="floor"><path class="st0" d="M441.4,374.8H45c-0.4,0-0.8-0.3-0.8-0.8s0.3-0.8,0.8-0.8h396.4c0.4,0,0.8,0.3,0.8,0.8S441.9,374.8,441.4,374.8
		z"></path></g><g id="plant"><polygon class="st0" points="425.1,342.8 432,389.4 407.2,389.4 414.1,342.8 407.2,336.3 432,336.3 	"></polygon><path class="st0" d="M432,390.1h-24.9c-0.2,0-0.4-0.1-0.6-0.3c-0.1-0.2-0.2-0.4-0.2-0.6l6.9-46.1l-6.7-6.3
		c-0.2-0.2-0.3-0.5-0.2-0.8c0.1-0.3,0.4-0.5,0.7-0.5H432c0.3,0,0.6,0.2,0.7,0.5c0.1,0.3,0,0.6-0.2,0.8l-6.7,6.3l6.9,46.1
		C432.8,389.7,432.6,390.1,432,390.1C432.1,390.1,432.1,390.1,432,390.1L432,390.1z M408,388.6h23.1l-6.9-45.6c0-0.2,0-0.5,0.2-0.7
		l5.6-5.2h-21.1l5.6,5.2c0.2,0.2,0.3,0.4,0.2,0.7L408,388.6z"></path><path class="st0" d="M420.7,372c-0.5,0-0.9-0.4-0.9-0.9v-52.6c0-10.8,1.7-21.5,5.2-31.8c0.2-0.5,0.6-0.7,1.1-0.6
		c0.5,0.2,0.7,0.6,0.6,1.1c-3.4,10.1-5.1,20.6-5.1,31.2v52.6C421.6,371.6,421.2,372,420.7,372z"></path><path class="st0" d="M423.2,329.3H423c-0.3,0-0.5-0.2-0.7-0.4c-2.7-4.4,2.3-13.6,7-18.1s9.5-3.9,11.8-1.4c1.2,1.2,1.6,3,1,4.6
		c-0.6,1.6-2,3.4-4.3,5.6C434.2,323.1,426.4,329.3,423.2,329.3z M436.4,309.2c-1.7,0-3.8,0.8-5.9,2.9c-4.4,4.2-8.3,12-6.9,15.4
		c2.3-0.5,8.5-4.7,13-9.1c2.1-2,3.4-3.6,3.9-5c0.4-1,0.2-2.1-0.6-2.8C439,309.7,437.7,309.2,436.4,309.2L436.4,309.2z"></path><path class="st0" d="M420.7,338.5c-0.5,0-0.9-0.4-0.9-0.9c0-12.6,12.1-23.5,12.6-24c0.3-0.4,0.9-0.5,1.2-0.2
		c0.4,0.3,0.5,0.9,0.2,1.2c-0.1,0.1-0.1,0.1-0.2,0.2c-0.1,0.1-12,10.9-12,22.6C421.6,338.1,421.2,338.5,420.7,338.5
		C420.7,338.5,420.7,338.5,420.7,338.5z"></path><path class="st0" d="M418.4,324.1c-4.1,0-15.2-7.5-20.9-12.9c-4.5-4.3-9.1-9.8-4.8-14.3c3.3-3.5,9.9-4.4,16.6,2
		c6.5,6.1,12.6,21.2,10.1,24.8c-0.1,0.2-0.3,0.3-0.6,0.4C418.7,324.1,418.5,324.1,418.4,324.1z M399.2,295.9c-2,0-3.9,0.8-5.3,2.2
		c-1.8,1.9-2.6,4.8,4.8,11.8c6.4,6.1,16.5,12.2,19.4,12.4c1-3.2-4-16.5-10.1-22.2C404.9,297.1,401.8,295.9,399.2,295.9L399.2,295.9z
		"></path><path class="st0" d="M420.7,332.5c-0.5,0-0.9-0.4-0.9-0.9c0,0,0,0,0,0c0-11.8-11.9-22.5-12-22.6c-0.4-0.3-0.4-0.9-0.1-1.2
		c0,0,0,0,0,0c0.3-0.4,0.9-0.4,1.2-0.1c0.5,0.5,12.6,11.4,12.6,24C421.6,332.1,421.2,332.5,420.7,332.5
		C420.7,332.5,420.7,332.5,420.7,332.5z"></path><path class="st0" d="M418.6,335.8c-2,0-5.6-1.7-7.9-3.9c-1.1-1-2.1-2.2-2.7-3.5c-0.4-1.1-0.2-2.3,0.6-3.1c1.5-1.6,4.6-2.1,7.6,0.8
		c2.6,2.4,4.9,6.1,3.6,9.1c-0.1,0.2-0.3,0.4-0.5,0.5C419.1,335.7,418.9,335.8,418.6,335.8z M411.8,325.7c-0.7,0-1.3,0.3-1.8,0.8
		c-0.4,0.3-0.5,0.9-0.3,1.3c0.5,1.1,1.3,2.1,2.2,2.9c1.8,1.7,4.1,2.9,6.5,3.4c0.4-1.8-0.9-4.4-3.4-6.7
		C414.2,326.3,413,325.8,411.8,325.7L411.8,325.7z"></path><path class="st0" d="M420.7,340.9c-0.5,0-0.9-0.4-0.9-0.9c0,0,0,0,0,0c0-4.7-4.8-9-4.8-9c-0.4-0.3-0.4-0.9-0.1-1.2
		c0.3-0.4,0.9-0.4,1.2-0.1c0.2,0.2,5.4,4.9,5.4,10.3C421.5,340.5,421.2,340.9,420.7,340.9z"></path><path class="st0" d="M420.9,315.4h-0.1c-1-0.1-1.9-0.8-2.4-1.7c-3-4.6-3.3-18.6-0.5-25.9c1.5-4,3.8-6.9,6.6-8.4
		c2.3-1.3,5-1.5,7.5-0.6c2.2,0.7,3.8,2.8,3.9,5.1c0.3,2.4-0.4,5.6-2,9.9l0,0C433.8,294.1,425.6,315.4,420.9,315.4z M428.9,280.1
		c-1.3,0-2.6,0.3-3.7,1c-2.4,1.3-4.4,3.9-5.8,7.5c-2.7,7.1-2,20.5,0.4,24.3c0.2,0.4,0.6,0.8,1,0.9l0,0c1.6,0,7.2-9.6,11.3-20.4l0,0
		c1.5-4,2.1-7,1.9-9.1c-0.1-1.7-1.2-3.2-2.8-3.7C430.5,280.2,429.7,280.1,428.9,280.1L428.9,280.1z"></path><path class="st1" d="M427.5,374.4c-0.4,0-0.8-0.3-0.9-0.7l-4.3-28.1c-0.1-0.5,0.2-0.9,0.7-1c0,0,0,0,0,0c0.5-0.1,0.9,0.3,1,0.7
		l4.3,28.1c0.1,0.5-0.3,0.9-0.7,1L427.5,374.4z"></path></g><g id="ai"><path class="st1" d="M189.6,379h42.2c-6.8-0.4-13.8-0.5-21.1-0.5S196.4,378.7,189.6,379z"></path><path class="st0" d="M231.8,379.8h-42.2c-0.4,0-0.8-0.3-0.8-0.8s0.3-0.8,0.8-0.8c14.1-0.7,28.2-0.7,42.3,0c0.4,0,0.8,0.3,0.8,0.8
		S232.3,379.8,231.8,379.8L231.8,379.8z"></path><path class="st1" d="M116.3,379v20.7c0,11.7,42.3,21.2,94.4,21.2s94.4-9.5,94.4-21.2V379H116.3z"></path><path class="st0" d="M210.7,421.7c-53.4,0-95.2-9.7-95.2-22V379c0-0.4,0.3-0.8,0.8-0.8h188.9c0.4,0,0.7,0.3,0.8,0.7c0,0,0,0,0,0
		v20.7C305.9,412,264.1,421.7,210.7,421.7z M117,379.8v19.9c0,11.1,42.9,20.5,93.7,20.5s93.7-9.4,93.7-20.5v-19.9H117z"></path><ellipse class="st1" cx="210.7" cy="379" rx="94.4" ry="21.2"></ellipse><path class="st0" d="M210.7,401c-53.4,0-95.2-9.6-95.2-22s41.8-22,95.2-22s95.2,9.6,95.2,22S264.1,401,210.7,401z M210.7,358.6
		c-50.8,0-93.7,9.4-93.7,20.4s42.9,20.5,93.7,20.5s93.7-9.4,93.7-20.5S261.5,358.6,210.7,358.6L210.7,358.6z"></path><path class="st0" d="M157.8,377.3c0,6.4,24.3,11.5,54.4,11.5s54.4-5.2,54.4-11.5c0,0-0.1-0.4-0.3-1.1c-1.3-5.7-7-31.6-9-53.5
		c-1.6-17.8,11.5-59.1,11.5-59.1s-111.2-12.2-107.1,12.6s-3.3,94.8-4,100.8c0,0.1,0,0.2,0,0.3S157.8,377.3,157.8,377.3z"></path><path class="st3" d="M110.5,201.8c0,51.6,41.8,93.4,93.4,93.4s93.4-41.8,93.4-93.4s-41.8-93.4-93.4-93.4c0,0,0,0,0,0
		C152.3,108.4,110.5,150.2,110.5,201.8z"></path><path class="st0" d="M188.9,199.9c0,26.4,21.4,47.7,47.7,47.8s47.7-21.4,47.8-47.7s-21.4-47.7-47.7-47.8c0,0,0,0,0,0
		C210.3,152.2,188.9,173.5,188.9,199.9z"></path><path class="st2" d="M110.5,201.8c0,51.6,41.8,93.4,93.4,93.4c17.5,0,34.6-4.9,49.4-14.1c0.5-2.2,0.4-4.5-0.2-6.7
		c-2.3-7.3-9.3-11-20.8-11c-8,0-18.6,1.7-32.2,5.3c-4.5,1.2-9.1,1.9-13.8,1.9c-23.5,0-35-19.3-44.2-34.8c-7.8-13.1-11-38.3-2-60.9
		c4.7-11.9,14.7-27.2,35.4-33.1c7.3-2,14.9-3.1,22.5-3c10.6,0,21.3,1.7,32.6,3.5l3.6,0.6c1.8,0.3,4,0.8,6.6,1.3
		c6.3,1.4,14.2,3,21.3,3c6.3,0,11.6-1.6,14.9-4.4c-0.7-1-1.4-2-2.1-3c-17.2-19.6-42.9-31.5-71-31.5
		C152.3,108.3,110.5,150.1,110.5,201.8C110.5,201.7,110.5,201.7,110.5,201.8z"></path><path class="st1" d="M102.8,288.3c0.2,1,0.4,2,0.4,3c0.1,1.7,0,3.4-0.3,5c-0.1,7.4-4.3,22.5,4.9,27.9c3.8,2.2,17.5,1.8,34,0
		l2.8-0.3c22.5-2.7,49.2-8.1,62.7-13.2c26.3-10,45.8-24.2,42.3-35.2s-21.5-10.5-48.7-3.4c-35.7,9.4-50.6-15.6-61.9-34.5
		c-15.4-25.8-10.7-86.1,35.5-99.1c20.7-5.9,39-2.4,60.2,1c10.6,1.7,35,9.6,41.7-1.5c-4.8-8.6-27.6-36-75.5-35.5l-2.8,0.1
		c-2.1,0.1-4.4,0.2-6.6,0.4c-10,0.8-19.8,2.4-29.6,4.8c-24.3,6-41.5,20.7-53,42.3c-6,11.2-9.2,24.4-7.1,37.2c0,0,0,0.1,0,0.1
		c0.2,1.2-0.9,19.3-1.8,26.3c-4.3,6.5-19.2,37.8-19.3,38.4c-0.4,3.5,10.4,6,19.3,8.8C106.1,262.6,101.3,279,102.8,288.3z"></path><path class="st0" d="M119.2,326.5c-5.2,0-9.7-0.4-11.7-1.6c-7.7-4.5-6.6-15.2-5.8-23c0.2-2.1,0.4-4,0.4-5.6c0,0,0-0.1,0-0.1
		c0.3-1.6,0.4-3.2,0.3-4.9c-0.1-0.7-0.2-1.4-0.3-2.1c0-0.2-0.1-0.5-0.1-0.8l0,0c-0.6-3.5-0.3-8.1,0-12.4c0.4-6.6,0.9-13.5-2.2-14.5
		c-1.6-0.5-3.2-1-4.8-1.4c-8.3-2.5-15.5-4.6-15-8.2c0.1-1.2,15.2-32.2,19.3-38.6c0.9-7.2,2-24.7,1.8-25.9l0.7-0.2l-0.7,0.1
		c-2-12,0.5-25.4,7.1-37.7c12-22.5,30-36.8,53.5-42.7c9.8-2.4,19.7-4,29.7-4.8c2.3-0.2,4.5-0.3,6.7-0.4l2.8-0.1
		c44.2-0.4,69.2,23.3,76.2,35.9c0.1,0.2,0.1,0.5,0,0.8c-5.8,9.5-23.8,5.7-35.7,3.1c-2.6-0.6-4.9-1.1-6.7-1.3l-3.6-0.6
		c-19.8-3.2-37-5.9-56.3-0.4c-21.8,6.2-32.3,22.3-37.2,34.7c-9.4,23.5-6,49.6,2.2,63.3c10.9,18.3,25.8,43.4,61,34.1
		c30.5-8,46.3-6.8,49.6,3.9c3.4,10.8-13.4,25-42.8,36.2c-12.8,4.8-38.6,10.3-62.9,13.2l-2.8,0.3
		C134.4,325.8,126.8,326.3,119.2,326.5z M103.7,296.4c0,1.6-0.2,3.6-0.4,5.7c-0.8,7.8-1.9,17.5,5,21.5c3.3,1.9,15.8,1.9,33.5-0.1
		l2.8-0.3c24.2-2.9,49.9-8.3,62.6-13.1c28.1-10.7,44.9-24.5,41.8-34.3c-3-9.7-18.2-10.6-47.8-2.8c-4.8,1.3-9.8,2-14.9,2.1
		c-25.9,0-38.4-20.9-47.9-36.9c-9.7-16.4-10.7-43.6-2.3-64.7c5.1-12.7,15.8-29.3,38.2-35.6c19.6-5.6,36.9-2.8,56.9,0.4l3.6,0.6
		c1.9,0.3,4.2,0.8,6.8,1.4c11.3,2.4,28.3,6.1,33.8-2.1c-7.1-12.3-31.1-34.8-73.4-34.8H201l-2.8,0.1c-2.1,0.1-4.3,0.2-6.6,0.4
		c-9.9,0.8-19.8,2.4-29.5,4.8c-23,5.7-40.7,19.8-52.5,41.9c-6.4,12-8.9,25.1-7,36.7v0.1c0.2,1.5-1,20-1.8,26.5
		c0,0.1-0.1,0.2-0.1,0.3c-4.4,6.7-18.6,36.5-19.2,38.2c-0.1,2.3,7.7,4.6,14,6.5c1.6,0.5,3.2,1,4.8,1.5c4.3,1.4,3.8,8.5,3.3,16
		c-0.3,4.3-0.6,8.7,0,12.1l0,0c0,0.2,0.1,0.5,0.1,0.7c0.1,0.8,0.3,1.5,0.3,2.3C104.1,292.9,104,294.7,103.7,296.4z"></path><path class="st1" d="M144.7,323.8c-0.9-1.4-1.6-3-2.1-4.6c-1.6-5.3-2.9-10.4-6-15.1c-6.4-9.6-17.5-16.7-29.3-16.3
		c-1.5,0.1-3,0.2-4.5,0.4"></path><path class="st0" d="M144.7,324.6c-0.2,0-0.5-0.1-0.6-0.3c-1-1.5-1.7-3.1-2.2-4.8l-0.6-1.8c-1.4-4.6-2.7-9-5.4-13.1
		c-6.7-10.1-18-16.3-28.7-16c-1.5,0.1-2.9,0.2-4.4,0.4c-0.4,0.1-0.8-0.2-0.8-0.6c-0.1-0.4,0.2-0.8,0.6-0.9c1.5-0.2,3-0.4,4.5-0.4
		c11.2-0.4,23,6.1,30,16.6c2.8,4.2,4.1,8.7,5.6,13.5l0.5,1.8c0.4,1.5,1.1,3,2,4.4c0.2,0.3,0.1,0.8-0.2,1
		C145.1,324.5,144.9,324.6,144.7,324.6z"></path><path class="st1" d="M198.2,102.4c-0.1,0.2-0.3,0.4-0.4,0.7c-2.6,4.1-6.2,7.4-10.4,9.7c-11.6,5.9-25.2,4.9-37.2,9.5
		c-5.6,2.2-10.9,5.5-14.5,10.4c-4.9,6.7-8,14.6-11.1,22.3c-4.7,11.4-10.8,27.1-22.7,32.3"></path><path class="st0" d="M101.9,188c-0.4,0-0.8-0.3-0.8-0.7c0-0.3,0.2-0.6,0.5-0.7c11.3-5,17.5-20.2,22-31.3l0.7-1.8
		c2.9-7.3,6-14.8,10.7-21.2c3.4-4.7,8.4-8.2,14.8-10.7c5.4-2.1,11.2-3,16.9-3.9c6.9-1.1,13.9-2.3,20.3-5.5c4.1-2.2,7.6-5.5,10.1-9.4
		l0.4-0.7c0.2-0.3,0.7-0.4,1-0.2c0.3,0.2,0.4,0.7,0.2,1l-0.4,0.7c-2.7,4.2-6.3,7.6-10.7,9.9c-6.6,3.3-13.8,4.5-20.7,5.6
		c-5.5,0.9-11.3,1.9-16.6,3.9c-6.2,2.3-10.9,5.8-14.1,10.2c-4.6,6.2-7.6,13.7-10.5,20.9l-0.7,1.8c-4.6,11.3-10.9,26.9-22.8,32.1
		C102.1,187.9,102,188,101.9,188z"></path><path class="st1" d="M107.6,205.1c0,0,9.3,11.7,14.5,7"></path><path class="st0" d="M119.2,214h-0.5c-5.3-0.4-11.5-8.1-11.8-8.4c-0.3-0.3-0.2-0.8,0.1-1c0,0,0,0,0,0c0.3-0.2,0.7-0.2,1,0.1
		c0.1,0.1,6,7.5,10.7,7.8c1,0.1,2-0.2,2.7-0.9c0.3-0.3,0.8-0.3,1.1,0c0.3,0.3,0.3,0.8,0,1.1c0,0-0.1,0.1-0.1,0.1
		C121.6,213.5,120.4,214,119.2,214z"></path><path class="st1" d="M195.1,199.9c0,24.2,19.7,43.9,43.9,43.9s43.9-19.7,43.9-43.9c0-24.2-19.7-43.9-43.9-43.9
		C214.8,156,195.1,175.7,195.1,199.9z"></path><path class="st0" d="M239,244.5c-24.6,0-44.6-20-44.6-44.6c0-24.6,20-44.6,44.6-44.6c24.6,0,44.6,20,44.6,44.6
		c0,15.4-7.9,29.7-21,37.8C255.5,242.2,247.4,244.5,239,244.5z M239,156.8c-23.8,0-43.1,19.4-43.1,43.2s19.4,43.1,43.2,43.1
		s43.1-19.4,43.1-43.2c0-9.9-3.4-19.4-9.6-27.1C264.4,162.6,252,156.8,239,156.8z"></path><path class="st0" d="M231.6,199.9c0,11.1,9,20.1,20.1,20.1s20.1-9,20.1-20.1s-9-20.1-20.1-20.1S231.6,188.8,231.6,199.9
		L231.6,199.9z"></path><path class="st1" d="M238.6,199.9c0,11.1,9,20.1,20.1,20.1c11.1,0,20.1-9,20.1-20.1c0-11.1-9-20.1-20.1-20.1
		C247.6,179.8,238.6,188.8,238.6,199.9C238.6,199.9,238.6,199.9,238.6,199.9z"></path><path class="st0" d="M258.6,220.7c-11.5,0-20.8-9.3-20.8-20.8s9.3-20.8,20.8-20.8c11.5,0,20.8,9.3,20.8,20.8
		c0,7.2-3.7,13.9-9.8,17.7C266.3,219.6,262.5,220.7,258.6,220.7z M258.6,180.6c-10.7,0-19.3,8.6-19.4,19.3
		c0,10.7,8.6,19.3,19.3,19.4c10.7,0,19.3-8.6,19.4-19.3c0-4.4-1.5-8.7-4.3-12.2C270,183.2,264.5,180.6,258.6,180.6z"></path></g><g id="Character_1"><path class="st0" d="M393.3,426.7c0,0-5.1,4.7-9.5,2c0,0-13.8-0.4-14.1,8.9c2.4,0.4,4.8,0.7,7.2,0.9c3.8,0.2,17.6-2.3,17.6-2.3
		L393.3,426.7L393.3,426.7z"></path><path class="st0" d="M377.5,439.2h-0.5c-2.5-0.1-4.9-0.4-7.3-0.9c-0.4-0.1-0.6-0.4-0.6-0.8c0.3-9.9,14.7-9.6,14.8-9.6
		c0.1,0,0.3,0,0.4,0.1c3.9,2.4,8.6-1.9,8.6-1.9c0.3-0.3,0.8-0.3,1,0c0.1,0.1,0.2,0.3,0.2,0.4l1.3,9.4c0.1,0.4-0.2,0.8-0.6,0.8
		C394.2,437,381.9,439.2,377.5,439.2z M370.5,437c2.1,0.4,4.3,0.6,6.5,0.7c3.2,0.2,13.9-1.7,16.8-2.2l-1-7.4
		c-1.8,1.3-5.6,3.4-9.2,1.3C382,429.5,371.4,429.8,370.5,437z"></path><polygon class="st2" points="313.3,235.2 298.8,256 326.4,256.7 	"></polygon><polygon class="st1" points="392.2,428.5 387.7,432.4 384,429.7 382.4,416.6 392,414.5 	"></polygon><path class="st0" d="M387.7,433.1c-0.2,0-0.3,0-0.4-0.1l-3.6-2.7c-0.2-0.1-0.3-0.3-0.3-0.5l-1.6-13.1c-0.1-0.4,0.2-0.7,0.6-0.8
		l9.6-2.1c0.4-0.1,0.8,0.2,0.9,0.6c0,0,0,0.1,0,0.1l0.2,14c0,0.2-0.1,0.4-0.3,0.6l-4.5,3.9C388,433.1,387.9,433.2,387.7,433.1z
		 M384.8,429.3l2.9,2.1l3.8-3.3l-0.2-12.7l-8,1.8L384.8,429.3z"></path><path class="st0" d="M343.2,419.5c0,0-5.1,4.7-9.5,2c0,0-13.8-0.4-14.1,8.9c2.4,0.4,4.8,0.7,7.2,0.9c3.8,0.2,17.6-2.3,17.6-2.3
		L343.2,419.5L343.2,419.5z"></path><path class="st0" d="M327.3,432h-0.5c-2.5-0.1-4.9-0.4-7.3-0.9c-0.4-0.1-0.6-0.4-0.6-0.8c0.3-9.9,14.7-9.6,14.8-9.6
		c0.1,0,0.3,0,0.4,0.1c3.9,2.4,8.6-1.9,8.6-1.9c0.2-0.2,0.5-0.2,0.8-0.1c0.3,0.1,0.5,0.3,0.5,0.6l1.3,9.4c0.1,0.4-0.2,0.8-0.6,0.8
		C344,429.8,331.7,432,327.3,432z M320.4,429.8c2.1,0.4,4.3,0.6,6.5,0.7c3.2,0.2,13.9-1.7,16.8-2.2l-1-7.4c-1.8,1.3-5.6,3.4-9.2,1.3
		C331.9,422.2,321.2,422.5,320.4,429.8L320.4,429.8z"></path><polygon class="st1" points="342.4,421.4 338.4,425.3 334.8,422.7 333.2,409.5 343.9,407.4 	"></polygon><path class="st0" d="M338.4,426.1c-0.2,0-0.3-0.1-0.5-0.1l-3.6-2.7c-0.2-0.1-0.3-0.3-0.3-0.5l-1.6-13.1c0-0.4,0.2-0.8,0.6-0.8
		l10.7-2.1c0.2,0,0.5,0,0.6,0.2c0.2,0.2,0.3,0.4,0.2,0.6l-1.5,14c0,0.2-0.1,0.3-0.2,0.5l-4,3.9C338.8,426,338.6,426.1,338.4,426.1z
		 M335.5,422.2l2.9,2.1l3.3-3.2l1.3-12.7l-9,1.8L335.5,422.2z M342.4,421.4L342.4,421.4z"></path><polygon class="st0" points="385.5,296.9 394.4,421.5 380.2,421.3 357.3,335.5 346.5,413.9 330.7,413.8 325.8,298.3 	"></polygon><path class="st0" d="M337.5,186.5c0.2-0.4,0.5-0.8,0.8-1.1c1.6-2.1,6.3-5,12.1-4.5c9.8,0.9,13.7,5.4,13.5,9.7
		c2.3-0.2,4.8,4.4,4.2,7.9c-0.8,4.2-2.4,8.3-4.5,12c-1,1.8-2.4,3.3-4.2,4.4c-1.8,0.9-3.8,1.3-5.8,1.2c-4.3,0.1-8.8-0.4-12.5-2.6
		s-7.1-6.8-7.3-11.4C333.6,196.7,334.6,191,337.5,186.5L337.5,186.5z"></path><path class="st2" d="M382.6,252l12.2-11.2c-6.3-10.9-13-15.6-17.4-17.9c-5.7-3.9-21.7-4.1-33.7-3.5c0,0-10.8,0.5-17,4.2
		c-7.6,4.3-13.3,11.6-13.3,11.6l7.3,19.2c0,0-0.3,42.1,2.4,51.3c0,0,37.8,6,64.5-4.1C387.4,301.7,382.6,255.6,382.6,252L382.6,252z"></path><path class="st1" d="M339,215.4l-1.5,10.4c0,0,2.7,6.7,9.6,5.6s9.4-5.5,9.4-5.5l1.6-20.4c0,0-4.8-3-2.5-13.8
		c-5.7,2-11.8,2.4-17.7,1.1c0,0-3.9,11.6-3.5,16.9S339,215.4,339,215.4L339,215.4z"></path><path class="st0" d="M345.5,232.3c-6.2,0-8.7-6.1-8.7-6.2c0-0.1,0-0.3,0-0.4l1.4-9.7c-1.4-0.4-4.2-1.9-4.6-6.3
		c-0.4-5.4,3.4-16.7,3.5-17.1c0.1-0.4,0.5-0.6,0.9-0.5c5.7,1.2,11.7,0.8,17.2-1.1c0.4-0.1,0.8,0,1,0.4c0,0.1,0.1,0.3,0,0.4
		c-2.1,10.1,2.2,13,2.2,13c0.2,0.1,0.4,0.4,0.4,0.7l-1.6,20.4c0,0.1,0,0.2-0.1,0.3c-0.1,0.2-2.8,4.7-9.9,5.9
		C346.6,232.2,346,232.3,345.5,232.3z M338.2,225.7c0.5,1,3,5.9,8.7,4.9s8.3-4.3,8.8-5l1.6-19.8c-1.1-1-4.2-4.5-2.7-13
		c-5.3,1.6-10.8,1.9-16.2,0.9c-0.8,2.4-3.6,11.5-3.2,15.9c0.4,4.6,3.9,5.1,4,5.1c0.2,0,0.4,0.1,0.5,0.3c0.1,0.2,0.2,0.4,0.1,0.6
		L338.2,225.7z"></path><path class="st1" d="M354.1,204.8c0.3-0.9,0.9-1.7,1.7-2.2c0.8-0.5,1.6-0.8,2.5-1c0.5-0.2,1-0.2,1.4-0.1c0.3,0.1,0.7,0.2,0.9,0.4
		c0.7,0.4,1.2,1.1,1.5,1.8c0.1,0.6,0.1,1.3-0.1,1.9c-0.1,0.7-0.4,1.4-0.7,2c-1.4,2.6-4.6,3.7-7.2,2.3c0,0-0.1,0-0.1,0"></path><path class="st0" d="M356.6,211.2c-1,0-2-0.2-2.9-0.7c-0.3-0.2-0.5-0.6-0.3-1c0.2-0.4,0.6-0.5,1-0.3c1.1,0.6,2.4,0.7,3.5,0.3
		c1.2-0.4,2.1-1.2,2.7-2.3c0.3-0.6,0.5-1.2,0.6-1.8c0.1-0.5,0.2-1,0.1-1.6c-0.2-0.6-0.7-1.1-1.2-1.4c-0.2-0.1-0.4-0.3-0.7-0.3
		c-0.4,0-0.8,0-1.1,0.1c-0.8,0.2-1.5,0.5-2.2,0.9c-0.7,0.4-1.1,1.1-1.4,1.9c-0.1,0.4-0.6,0.6-1,0.5c-0.4-0.1-0.6-0.6-0.5-0.9
		c0.4-1.1,1-2,2-2.6c0.8-0.5,1.7-0.9,2.7-1.1c0.6-0.2,1.2-0.3,1.8-0.2c0.4,0.1,0.8,0.3,1.2,0.5c0.9,0.5,1.5,1.3,1.8,2.2
		c0.2,0.8,0.2,1.5,0,2.3c-0.1,0.8-0.4,1.5-0.7,2.2c-0.8,1.4-2.1,2.5-3.6,3C357.9,211.2,357.3,211.3,356.6,211.2z"></path><path class="st0" d="M338.2,220.4c2.5,0.5,5.1-0.2,7.1-1.7c3.2-2.6,3-4.3,3-4.3s-5,2.3-9.4,1.1L338.2,220.4z"></path><path class="st0" d="M339.9,221.3c-0.6,0-1.2-0.1-1.8-0.2c-0.4-0.1-0.6-0.5-0.6-0.8l0.8-5c0-0.2,0.2-0.4,0.3-0.5
		c0.2-0.1,0.4-0.2,0.6-0.1c4,1.1,8.8-1,8.8-1c0.2-0.1,0.5-0.1,0.7,0c0.2,0.1,0.3,0.3,0.4,0.6c0,0.2,0.1,2.1-3.3,5
		C344.1,220.6,342,221.4,339.9,221.3z M338.2,220.4L338.2,220.4z M339.1,219.8c2.1,0.2,4.1-0.4,5.7-1.7c0.9-0.7,1.7-1.5,2.3-2.5
		c-2.4,0.8-5,1.1-7.5,0.7L339.1,219.8z"></path><path class="st1" d="M344.2,199.7c0,0-4.1,4.9-3.4,5.9s3.2,0.7,3.2,0.7"></path><path class="st0" d="M343.1,207c-1,0.1-2.1-0.3-2.8-1c-0.7-1,0.4-3.3,3.4-6.8c0.3-0.3,0.7-0.4,1.1-0.1c0.3,0.3,0.4,0.7,0.1,1.1
		c0,0,0,0,0,0c-1.7,2.1-3.2,4.4-3.3,5c0.7,0.4,1.6,0.5,2.4,0.3c0.4-0.1,0.8,0.2,0.9,0.6s-0.2,0.8-0.6,0.9c0,0-0.1,0-0.1,0
		C343.8,207,343.4,207,343.1,207z"></path><path class="st1" d="M342.9,209.9c0,0,3.8,1.7,5.3-2"></path><path class="st0" d="M344.8,211c-0.8,0-1.5-0.2-2.3-0.5c-0.4-0.2-0.5-0.7-0.3-1c0.2-0.3,0.6-0.5,0.9-0.3c0.9,0.4,1.8,0.4,2.7,0.1
		c0.7-0.3,1.3-1,1.5-1.7c0.2-0.4,0.6-0.6,1-0.4c0.4,0.2,0.6,0.6,0.4,1c0,0,0,0,0,0c-0.4,1.1-1.3,2.1-2.4,2.5
		C345.9,210.9,345.4,211,344.8,211z"></path><ellipse class="st0" transform="matrix(0.317 -0.9484 0.9484 0.317 49.3553 468.8958)" cx="350.2" cy="200.2" rx="1.2" ry="0.9"></ellipse><ellipse class="st0" transform="matrix(0.317 -0.9484 0.9484 0.317 43.9788 459.5611)" cx="341.1" cy="199.2" rx="1.2" ry="0.9"></ellipse><polygon class="st1" points="349.7,239.3 293.2,249.3 260,239.2 284.7,296.4 315.2,302.3 352.6,297.1 	"></polygon><path class="st0" d="M315.2,303h-0.1l-30.5-5.9c-0.2,0-0.4-0.2-0.5-0.4l-24.7-57.2c-0.2-0.4,0-0.8,0.4-1c0.2-0.1,0.3-0.1,0.5,0
		l33,10.1l56.3-10c0.2,0,0.4,0,0.6,0.2c0.2,0.1,0.3,0.3,0.3,0.5l2.9,57.8c0,0.4-0.3,0.7-0.6,0.8L315.2,303L315.2,303z M285.3,295.7
		l30,5.8l36.6-5.1l-2.9-56.2l-55.7,9.8c-0.1,0-0.2,0-0.4,0l-31.6-9.6L285.3,295.7z"></path><path class="st1" d="M267.1,261.6c0.2,1.1,0.5,2.2,0.9,3.2l2,5.2c0.5,1.3,1.3,2.8,2.7,2.8c1-0.1,1.8-0.6,2.4-1.4
		c2-2.1,4.1-4.4,4.7-7.3c0.1-0.4,0-1-0.4-1.1c-0.2,0-0.4,0-0.5,0.1c-1.5,0.7-2.8,1.7-3.8,3c1.4-1.5,2.7-3.3,3.7-5.1
		c0.2-0.4,0.4-1,0-1.3c-0.3-0.1-0.6-0.1-0.9,0c-1.1,0.4-2.1,1-2.9,1.8c1.2-0.8,2.1-1.9,2.7-3.2c0.2-0.5,0.3-1.2-0.2-1.4
		s-0.8,0.1-1.1,0.3c-0.8,0.6-1.6,1.3-2.2,2.1c0.5-0.7,0.9-1.5,1-2.3c0.1-0.2,0.1-0.4,0-0.6c-0.2-0.4-0.8-0.1-1.1,0.1l-4.8,3.7
		c0.2-0.2-1-1.5-1.4-1.4C267,259.1,267,261.1,267.1,261.6L267.1,261.6z"></path><path class="st0" d="M272.7,273.6L272.7,273.6c-2.1,0-3.1-2.5-3.4-3.3l-2-5.2c-0.5-1.1-0.8-2.3-1-3.5c0,0,0-0.1,0-0.1
		c-0.1-0.7-0.1-3,1.1-3.4c0.7-0.2,1.4,0.5,1.9,1l4.1-3.2c0.4-0.3,0.9-0.5,1.5-0.5c0.3,0.1,0.6,0.2,0.8,0.5c0.1,0.2,0.2,0.4,0.2,0.6
		c0.5-0.5,1.3-0.6,1.9-0.4c0.8,0.5,1,1.6,0.5,2.4l-0.1,0.3c0.4-0.1,0.8,0,1.1,0.2c0.6,0.6,0.7,1.6,0.2,2.3c-0.2,0.3-0.4,0.6-0.6,1
		c0.2-0.1,0.5-0.1,0.7,0c0.8,0.2,1.2,1,1,2c-0.6,3.2-3,5.7-4.9,7.7C274.9,272.9,273.9,273.5,272.7,273.6z M267.8,261.6
		c0.2,1,0.4,2,0.9,2.9l2,5.3c0.6,1.6,1.3,2.3,2,2.4l0,0c0.6,0,1.3-0.6,1.8-1.2c1.9-2,4-4.2,4.5-6.9c0,0,0,0,0-0.1
		c-1.1,0.5-2,1.2-2.9,2.1c-0.2,0.2-0.4,0.5-0.6,0.7c-0.3,0.3-0.8,0.3-1.1,0.1s-0.3-0.8-0.1-1.1c0.2-0.2,0.4-0.5,0.7-0.7
		c1.1-1.3,2.2-2.7,3-4.3c0-0.1,0.1-0.2,0.1-0.2h-0.1c-0.6,0.3-1.2,0.6-1.8,1c-0.3,0.3-0.6,0.5-1,0.8c-0.3,0.2-0.8,0.1-1-0.2
		c-0.2-0.3-0.2-0.7,0.1-0.9c0.3-0.3,0.6-0.5,0.9-0.8c0.7-0.6,1.2-1.4,1.5-2.2c0.1-0.1,0.1-0.3,0.1-0.4c-0.1,0.1-0.2,0.1-0.3,0.2
		c-0.8,0.6-1.5,1.3-2.1,2c-0.3,0.3-0.8,0.4-1.1,0.1c-0.3-0.3-0.4-0.8-0.1-1.1l0,0c0.4-0.5,0.6-1,0.8-1.6l-4.7,3.6l0,0
		c-0.3,0.2-0.8,0.2-1-0.1c-0.1-0.1-0.2-0.3-0.2-0.5c-0.1-0.2-0.3-0.3-0.4-0.5c-0.1,0.6-0.1,1.1-0.1,1.7L267.8,261.6z M268.6,259.7
		L268.6,259.7z"></path><path class="st1" d="M391.6,241.2c0,0,28,39.6,12.1,43.7c-11.1,2.9-28.8-0.6-37.5-4.2s-15.5-6.3-15.5-6.3s-11.8-0.4-12.1-2.3
		c-0.4-1.5,4.8-1.8,4.8-1.8s-7.2-1.1-6.8-2.5c0.5-2.1,6.8-1.4,6.8-1.4s-9.2-2.2-7.7-3.6s7.6-0.2,7.6-0.2s-4.1-1.5-4.1-3.4
		c2.2-1.4,12.9,0.6,15.7,2.9s23.9,3.9,26.8,3.9l-4.4-11.8C380.9,248.8,385.8,244.3,391.6,241.2z"></path><path class="st0" d="M394,286.8c-9.6-0.1-19.1-1.9-28.1-5.3c-8-3.3-14.5-5.9-15.4-6.2c-5.6-0.2-12.4-0.8-12.7-2.9
		c-0.1-0.4,0-0.8,0.2-1c0.4-0.4,0.8-0.7,1.3-0.9c-1.5-0.4-2.9-1-3.4-1.6c-0.2-0.3-0.3-0.7-0.2-1c0.3-1,1.3-1.6,2.6-1.9
		c-1.9-0.7-3.4-1.5-3.6-2.3c-0.1-0.4,0-0.9,0.4-1.2c0.9-0.8,2.7-0.9,4.5-0.9c-0.7-0.5-1.1-1.3-1.1-2.1c0-0.3,0.1-0.5,0.4-0.6
		c2.6-1.6,13.7,0.6,16.6,3c2.4,1.9,19.9,3.5,25.2,3.8l-4-10.8c-0.1-0.2-0.1-0.5,0.1-0.6c3.6-5.7,8.6-10.3,14.5-13.5
		c0.3-0.2,0.7-0.1,0.9,0.2c0.8,1.2,20.7,29.4,16.6,40.6c-0.8,2.2-2.6,3.8-4.9,4.3C400.7,286.4,397.3,286.8,394,286.8z M339.3,272.1
		c0.7,0.7,5.8,1.5,11.3,1.6c0.1,0,0.2,0,0.2,0c0.1,0,6.9,2.7,15.6,6.3c8.3,3.4,25.9,7.1,37,4.1c1.8-0.4,3.2-1.6,3.9-3.4
		c3.5-9.7-13.3-34.7-16-38.7c-5.3,3-9.8,7.2-13.2,12.3l4.2,11.6c0.1,0.2,0.1,0.5-0.1,0.7c-0.1,0.2-0.4,0.3-0.6,0.3l0,0
		c-2.1,0-24-1.5-27.3-4.1c-2.6-2-11.7-3.7-14.4-3c0.9,1,2.1,1.8,3.4,2.2c0.4,0.1,0.6,0.6,0.4,1c-0.1,0.3-0.5,0.5-0.8,0.5
		c-2.2-0.4-5.5-0.7-6.7-0.1c0.8,0.6,3.9,1.7,7.1,2.5c0.4,0.1,0.6,0.5,0.5,0.9c-0.1,0.3-0.4,0.6-0.8,0.5c-2.5-0.3-5.4,0-5.9,0.7
		c0.6,0.5,3.3,1.3,6.2,1.7c0.4,0.1,0.7,0.4,0.6,0.8c0,0.4-0.3,0.7-0.7,0.7C342,271.2,340.6,271.5,339.3,272.1L339.3,272.1z"></path><line class="st4" x1="388.2" y1="266.9" x2="381.8" y2="266.2"></line><path class="st0" d="M388.2,267.7L388.2,267.7l-6.5-0.7c-0.4,0-0.7-0.4-0.7-0.8c0-0.4,0.4-0.7,0.8-0.7c0,0,0,0,0,0l6.5,0.7
		c0.4,0,0.7,0.4,0.7,0.8C389,267.4,388.6,267.7,388.2,267.7L388.2,267.7z"></path><line class="st4" x1="293.2" y1="250.1" x2="314.9" y2="301.2"></line><path class="st0" d="M314.9,301.9c-0.3,0-0.6-0.2-0.7-0.5l-21.7-51c-0.2-0.4,0-0.8,0.4-1c0,0,0,0,0,0c0.4-0.2,0.8,0,1,0.4
		c0,0,0,0,0,0l21.7,51c0.2,0.4,0,0.8-0.4,1c0,0,0,0,0,0C315.1,301.9,315,301.9,314.9,301.9z"></path><path class="st0" d="M305.1,248c-0.1,0-0.2,0-0.3-0.1c-0.4-0.2-0.5-0.6-0.3-1c4.8-9.6,12-17.9,19.8-22.5c7.6-4.5,13.8-4.7,14-4.7
		c0.4,0,0.7,0.3,0.8,0.7c0,0,0,0,0,0c0,0.4-0.3,0.8-0.7,0.8c0,0,0,0,0,0c-4.7,0.5-9.2,2-13.3,4.5c-7.5,4.5-14.5,12.5-19.2,21.9
		C305.7,247.8,305.4,248,305.1,248z"></path></g><g id="front_hand"><path class="st1" d="M302.1,122.8c-3,5.4-17.4,4.6-29.2,3.3c-6.1-0.7-11.9-1.3-14.1-1.6l-1-0.1c-0.2,0-0.3,0-0.5,0
		c-3.6,0-14.7,0.2-17.3-0.1c-2.8-0.6-3.8-4.7-3.8-5.4s4.9-0.8,4.9-0.8c-1.9-0.1-5.6-1.6-2.6-1.8s8.6-1.8,10.8-1.5
		c5.6,1,11.4,1.4,17.1,1.1c5.3-0.4,14.3-1.7,19.6-2.4c0,0-0.2-2.1-4.1-8.7l14-5C295.9,99.8,306.5,115,302.1,122.8z"></path><path class="st0" d="M287.2,127.8c-4.8-0.1-9.6-0.4-14.4-0.9c-5.8-0.6-11.6-1.3-14.1-1.6l-1-0.1h-1.2c-4.2,0-14.1,0.2-16.6-0.1
		c-3.3-0.7-4.5-5.2-4.5-6.2c0-0.4,0-0.9,1.7-1.2c-0.4-0.2-0.6-0.6-0.6-1c0-1,1.3-1.1,1.9-1.2c1.5-0.2,3-0.4,4.5-0.7
		c2.6-0.5,5-1,6.5-0.8l0.7,0.1c5.3,1,10.8,1.3,16.2,1c4-0.3,10.1-1.1,15.1-1.8l3.7-0.5c-1-2.7-2.3-5.3-3.8-7.7
		c-0.1-0.2-0.1-0.4-0.1-0.6c0.1-0.2,0.2-0.4,0.5-0.5l14-5c0.3-0.1,0.7,0,0.9,0.3c0.5,0.6,10.9,15.6,6.3,23.8l0,0
		C301,126.3,296,127.8,287.2,127.8z M257.4,123.7c0.2,0,0.4,0,0.6,0l1,0.1c2.5,0.3,8.3,1,14.1,1.6c6.2,0.7,25.2,2.7,28.4-3l0,0
		c3.7-6.6-4.2-19.1-5.9-21.7l-12.6,4.5c3.5,6,3.7,8,3.8,8.2c0,0.4-0.3,0.8-0.7,0.8c-1.3,0.2-2.9,0.4-4.5,0.6
		c-5,0.7-11.1,1.5-15.1,1.8c-5.5,0.3-11.1,0-16.6-1l-0.7-0.1c-2,0-4,0.2-6,0.7c-1.4,0.3-2.8,0.5-3.9,0.7c0.6,0.2,1.2,0.3,1.9,0.4
		c0.4,0,0.7,0.4,0.7,0.8c0,0.4-0.3,0.7-0.7,0.7c-1.4,0-2.7,0.1-4.1,0.4c0.2,1.1,1.2,3.9,3.2,4.3c2.3,0.3,12.1,0.2,16.3,0.1
		L257.4,123.7L257.4,123.7z"></path><path class="st0" d="M278.2,106.7c-0.3,0-0.6-0.2-0.7-0.5l-6.8-19.4c-0.1-0.4,0.1-0.8,0.5-1c0.4-0.1,0.8,0.1,1,0.5l6.5,18.6
		l20.5-7.1c0.4-0.1,0.8,0.1,1,0.5c0.2,0.4,0,0.8-0.4,1c0,0,0,0-0.1,0l-21.2,7.4C278.3,106.7,278.3,106.7,278.2,106.7z"></path><path class="st0" d="M261.4,125.4L261.4,125.4l-2.6-0.1c-0.2,0-0.4-0.1-0.5-0.3c-0.1-0.2-0.2-0.4-0.2-0.6l1.1-8.5
		c0.1-0.4,0.4-0.7,0.9-0.6l2.1,0.3c0.4,0.1,0.7,0.4,0.6,0.8l-0.7,8.3C262.1,125.1,261.8,125.4,261.4,125.4z M259.7,123.8l1,0.1
		l0.6-6.9l-0.7-0.1L259.7,123.8z"></path><path class="st0" d="M286,114.3c-0.4,0-0.7-0.3-0.7-0.8c0-0.3,0.2-0.6,0.6-0.7l4.5-1c0.4-0.1,0.8,0.2,0.9,0.6
		c0.1,0.4-0.2,0.8-0.6,0.9l-4.5,1L286,114.3z"></path><path class="st1" d="M186.2,101.5c0,0-2.7,3.8-1.6,4.7s6.8-4.7,6.8-4.7"></path><path class="st0" d="M184.9,107.1c-0.3,0-0.5-0.1-0.7-0.3c-1.5-1.2,0.5-4.4,1.4-5.7c0.2-0.3,0.7-0.4,1-0.2c0.3,0.2,0.4,0.7,0.2,1
		c-0.8,1.1-1.4,2.3-1.7,3.6c0.9-0.2,3.4-2.2,5.8-4.6c0.3-0.3,0.8-0.3,1.1,0c0.3,0.3,0.3,0.8,0,1.1
		C187.7,106.2,185.8,107.1,184.9,107.1z M185.1,105.7L185.1,105.7z"></path></g></svg>