<svg transform="scale(1)" id="gtVqT4yDxM" data-name="0779_Profile" xmlns="http://www.w3.org/2000/svg" viewBox="0 0 500 500" class="pbimage_pbimage__wrapper__image__0LEis false"><title>Profile</title><defs><style> .cls-1{fill:#68e1fd;} .cls-1, .cls-2, .cls-3, .cls-4{stroke-width:0px;} .cls-2{fill:#d1d3d4;} .cls-3{fill:#fff;} .cls-4{fill:#231f20;}
 .cls-4{fill:#231F20;}
 .cls-3{fill:#FFFFFF;}
 .cls-2{fill:#D1D3D4;}
 .cls-1{fill:#9b4890;}</style></defs><g id="Phone"><g><rect class="cls-4" x="157.63" y="72.22" width="213.91" height="344.73" rx="7.87" ry="7.87" transform="translate(529.17 489.16) rotate(180)"></rect><path class="cls-4" d="M363.68,417.69h-198.18c-4.75,0-8.62-3.87-8.62-8.62V80.08c0-4.75,3.87-8.62,8.62-8.62h198.18c4.75,0,8.62,3.87,8.62,8.62v329c0,4.75-3.87,8.62-8.62,8.62ZM165.49,72.97c-3.92,0-7.12,3.19-7.12,7.12v329c0,3.92,3.19,7.12,7.12,7.12h198.18c3.92,0,7.12-3.19,7.12-7.12V80.08c0-3.92-3.19-7.12-7.12-7.12h-198.18Z"></path></g><g><rect class="cls-3" x="140.84" y="72.22" width="213.91" height="344.73" rx="7.87" ry="7.87" transform="translate(495.6 489.16) rotate(180)"></rect><path class="cls-4" d="M346.89,417.69h-198.18c-4.75,0-8.62-3.87-8.62-8.62V80.08c0-4.75,3.87-8.62,8.62-8.62h198.18c4.75,0,8.62,3.87,8.62,8.62v329c0,4.75-3.87,8.62-8.62,8.62ZM148.71,72.97c-3.92,0-7.12,3.19-7.12,7.12v329c0,3.92,3.19,7.12,7.12,7.12h198.18c3.92,0,7.12-3.19,7.12-7.12V80.08c0-3.92-3.19-7.12-7.12-7.12h-198.18Z"></path></g><g><rect class="cls-3" x="140.84" y="72.22" width="213.91" height="344.73" rx="7.87" ry="7.87" transform="translate(495.6 489.16) rotate(180)"></rect><path class="cls-4" d="M346.89,417.69h-198.18c-4.75,0-8.62-3.87-8.62-8.62V80.08c0-4.75,3.87-8.62,8.62-8.62h198.18c4.75,0,8.62,3.87,8.62,8.62v329c0,4.75-3.87,8.62-8.62,8.62ZM148.71,72.97c-3.92,0-7.12,3.19-7.12,7.12v329c0,3.92,3.19,7.12,7.12,7.12h198.18c3.92,0,7.12-3.19,7.12-7.12V80.08c0-3.92-3.19-7.12-7.12-7.12h-198.18Z"></path></g><g><g><rect class="cls-3" x="273.86" y="81.48" width="4.55" height="4" rx="1.7" ry="1.7" transform="translate(552.28 166.95) rotate(180)"></rect><path class="cls-4" d="M276.71,86.23h-1.15c-1.35,0-2.45-1.1-2.45-2.45v-.59c0-1.35,1.1-2.45,2.45-2.45h1.15c1.35,0,2.45,1.1,2.45,2.45v.59c0,1.35-1.1,2.45-2.45,2.45ZM275.57,82.23c-.53,0-.95.43-.95.95v.59c0,.53.43.95.95.95h1.15c.53,0,.95-.43.95-.95v-.59c0-.53-.43-.95-.95-.95h-1.15Z"></path></g><g><rect class="cls-4" x="217.19" y="81.48" width="52.37" height="4" rx="2" ry="2" transform="translate(486.74 166.95) rotate(180)"></rect><path class="cls-4" d="M267.56,86.23h-48.37c-1.52,0-2.75-1.23-2.75-2.75s1.23-2.75,2.75-2.75h48.37c1.52,0,2.75,1.23,2.75,2.75s-1.23,2.75-2.75,2.75ZM219.19,82.23c-.69,0-1.25.56-1.25,1.25s.56,1.25,1.25,1.25h48.37c.69,0,1.25-.56,1.25-1.25s-.56-1.25-1.25-1.25h-48.37Z"></path></g></g></g><g id="Screen"><g><rect class="cls-1" x="92.14" y="153.61" width="311.33" height="193.29" rx="5.8" ry="5.8" transform="translate(498.05 2.45) rotate(90)"></rect><path class="cls-4" d="M338.64,406.66h-181.69c-3.61,0-6.55-2.94-6.55-6.55V100.39c0-3.61,2.94-6.55,6.55-6.55h181.69c3.61,0,6.55,2.94,6.55,6.55v299.73c0,3.61-2.94,6.55-6.55,6.55ZM156.96,95.34c-2.78,0-5.05,2.26-5.05,5.05v299.73c0,2.78,2.27,5.05,5.05,5.05h181.69c2.78,0,5.05-2.27,5.05-5.05V100.39c0-2.78-2.27-5.05-5.05-5.05h-181.69Z"></path></g><g><g><path class="cls-3" d="M190.81,181.44c0,12.26,3.73,23.66,10.12,33.11,10.64,15.74,28.65,26.1,49.09,26.1,21.7,0,40.68-11.67,50.99-29.09,5.22-8.82,8.22-19.12,8.22-30.11,0-32.7-26.51-59.21-59.21-59.21s-59.21,26.51-59.21,59.21Z"></path><path class="cls-4" d="M250.02,241.4c-19.94,0-38.53-9.88-49.71-26.43-6.7-9.91-10.25-21.51-10.25-33.53,0-33.06,26.9-59.96,59.96-59.96s59.96,26.9,59.96,59.96c0,10.76-2.88,21.3-8.32,30.5-10.75,18.17-30.54,29.46-51.64,29.46ZM250.02,122.98c-32.23,0-58.46,26.22-58.46,58.46,0,11.72,3.45,23.03,9.99,32.69,10.91,16.13,29.03,25.77,48.47,25.77,20.57,0,39.86-11.01,50.35-28.73,5.31-8.96,8.11-19.25,8.11-29.73,0-32.23-26.22-58.46-58.46-58.46Z"></path></g><path class="cls-1" d="M200.92,214.55c10.64,15.74,28.65,26.1,49.09,26.1,21.7,0,40.68-11.67,50.99-29.09-6.59-2.12-16.2-3.97-29.53-3.97h-48.7c-8.05,0-15.99,3.47-21.84,6.97Z"></path><g><g><path class="cls-3" d="M236.38,203.8c-.02.48-.52,4.36-1.12,9-.19,1.45-.13,4.33,1.08,7.51,3.35,8.79,15.92,8.14,24.33,2.85,7.04-4.43,10.39-13.06,10.39-13.06l4.42-27.39c2.09.71,11.27,2.35,12.2-7.11.6-6.09-2.61-7.94-5.53-8.38-1.57-.25-3.05-.09-3.82.04-.18.26-.38.5-.59.74h-.01c-.18.21-.37.41-.57.59-1.18,1.08-3.13,1.72-4.33.66-.71-.62-.91-1.62-1.08-2.56-1.5-8.4-2.94-17.43.61-25.18-.18-.27-.35-.55-.54-.84-.54-.85-1.07-1.77-1.64-2.63h-.01c-1.24-1.85-2.67-3.47-4.73-3.8q-4.12-.68-7.15.79c-4.79,2.33-8.05,5.61-14.65,5.8-4.78.14-10.21-1.56-13.52-3.96-.61,1.03-1.17,2.09-1.64,3.21-1.03,2.31-1.75,4.8-2.14,7.41-2.08,14.03-4.21,29.57-4.62,37.15-.86,15.68,14.65,19.16,14.65,19.16Z"></path><path class="cls-4" d="M247.69,227.78c-1.86,0-3.62-.25-5.19-.78-3.3-1.1-5.67-3.33-6.85-6.43-1.19-3.12-1.36-6.11-1.13-7.87.28-2.13.86-6.68,1.05-8.35-2.99-.9-15.37-5.5-14.59-19.76.34-6.34,1.9-18.86,4.62-37.22.4-2.67,1.13-5.23,2.19-7.61.45-1.06,1-2.14,1.68-3.29.11-.18.29-.31.49-.35.21-.04.42,0,.59.13,3.27,2.38,8.64,3.94,13.06,3.82,4.63-.14,7.57-1.87,10.68-3.7,1.16-.68,2.36-1.39,3.67-2.03,3.18-1.55,3.33-1.56,7.6-.86,2.41.39,4.03,2.34,5.17,4.04.03.03.05.06.07.09.35.53.69,1.09,1.03,1.63.21.34.42.68.62,1.01l.1.16c.14.22.28.44.42.65.15.22.17.5.06.73-3.32,7.23-2.21,15.48-.56,24.74.17.9.34,1.69.84,2.12.84.74,2.35.25,3.33-.64.19-.17.36-.35.52-.53.21-.23.38-.45.55-.68.12-.16.29-.27.49-.31.79-.13,2.36-.31,4.06-.04,2.6.39,6.86,2.11,6.16,9.19-.32,3.22-1.57,5.56-3.73,6.95-2.79,1.8-6.47,1.55-8.61,1.03l-4.29,26.55c0,.05-.02.1-.04.15-.14.36-3.52,8.91-10.69,13.43-4.11,2.58-9.01,3.99-13.39,3.99ZM230.37,137.95c-.47.84-.86,1.63-1.2,2.43-1.01,2.26-1.71,4.69-2.08,7.23-2.72,18.31-4.27,30.79-4.61,37.08-.81,14.85,13.46,18.25,14.06,18.39.35.08.6.4.58.76-.02.44-.33,2.98-1.12,9.06-.2,1.51-.05,4.28,1.04,7.14,1.03,2.71,3.03,4.57,5.93,5.54,4.86,1.62,11.81.39,17.3-3.06,6.41-4.04,9.73-11.81,10.07-12.63l4.41-27.3c.04-.22.16-.41.35-.52.19-.12.42-.14.63-.07,1.31.44,5.33,1.19,8.16-.63,1.76-1.13,2.78-3.1,3.05-5.84.44-4.46-1.21-7.01-4.9-7.56-1.3-.2-2.53-.11-3.29,0-.14.19-.29.37-.46.55-.21.23-.41.44-.63.64-1.44,1.32-3.8,2.01-5.33.66-.93-.81-1.16-2.07-1.32-2.98-1.37-7.63-3.06-17.09.5-25.25-.07-.11-.15-.23-.22-.35l-.1-.16c-.21-.33-.42-.68-.63-1.03-.31-.5-.62-1.01-.94-1.5-.02-.03-.05-.05-.07-.08-1.04-1.55-2.35-3.17-4.22-3.48q-3.89-.64-6.7.73c-1.26.61-2.43,1.3-3.56,1.97-3.13,1.85-6.37,3.76-11.39,3.91-4.5.12-9.72-1.31-13.3-3.64Z"></path></g><g><path class="cls-4" d="M222.38,176.96s2.27-3.02,6.42-1.51,8.44,2.52,12.97,1.76,14.1-1.01,19.01,3.53,5.98,12.94-.82,18.23c-6.62,5.15-21.85,9.48-32.55.54-9.48-7.92-8.31-18.38-5.04-22.54Z"></path><path class="cls-4" d="M242.34,205.41c-5.32,0-10.79-1.48-15.4-5.33-9.33-7.79-8.99-18.69-5.15-23.57.9-1.2,3.58-3.1,7.27-1.76,3.36,1.22,7.82,2.52,12.59,1.73,4.92-.82,14.58-.96,19.65,3.72,2.79,2.58,4.37,6.32,4.21,10-.15,3.62-1.96,6.94-5.08,9.37-4.08,3.18-10.95,5.84-18.09,5.85ZM226.54,175.78c-2.27,0-3.5,1.55-3.56,1.64,0,0,0,0,0,.01-2.88,3.66-4.39,13.71,4.93,21.5,10.16,8.49,24.87,4.69,31.61-.55,3.55-2.76,4.41-6.01,4.5-8.25.14-3.25-1.26-6.55-3.73-8.83-4.64-4.29-14.05-4.06-18.38-3.34-5.11.85-9.82-.51-13.35-1.8-.74-.27-1.41-.38-2.01-.38ZM222.38,176.96h0,0Z"></path></g><g><path class="cls-4" d="M224.18,137.44c1.31,1.08,2.76,1.94,4.31,2.64.47-1.12,1.03-2.18,1.64-3.21,1.79,3.64,2.92,4.47,7.65,5.15,18.68,2.7,30.22-3.97,31.54,2.64,1.38,6.92-.19,20.71.25,24.3.86,6.99,4.91,4.03,4.91,4.03.21-.24,3.67-5.47,3.86-5.73.77-.13,2.26-.29,3.82-.04,1.35-1.66,2.62-3.39,3.67-5.26,1.99-3.55,3.17-7.7,2.51-11.72-.39-2.35-1.39-4.59-1.55-6.97-.21-3.26,1.08-6.65,0-9.74-5.08-14.49-16.69-15.6-20.04-17.76-2.92-1.9-6.68-1.86-10.13-1.36-3.46.48-6.93,1.35-10.37.89-2.47-.33-4.76-1.42-7.2-1.92-14-2.9-18.28,8.11-19.37,12.37-1.1,4.27,1.1,8.88,4.49,11.7Z"></path><path class="cls-4" d="M272.62,174.37c-.38,0-.77-.07-1.17-.24-1.41-.61-2.29-2.32-2.63-5.07-.17-1.4-.06-4.08.08-7.49.23-5.57.52-12.5-.33-16.76-.57-2.85-3.51-2.68-10.11-2.03-5.19.51-12.29,1.21-20.8-.02-4.34-.63-5.92-1.43-7.56-4.33-.35.66-.66,1.3-.93,1.94-.08.19-.23.33-.42.41-.19.07-.4.07-.58-.01-1.71-.77-3.18-1.67-4.48-2.75h0c-3.91-3.24-5.82-8.25-4.74-12.46.98-3.81,5.34-16.01,20.25-12.92,1.1.23,2.17.57,3.21.9,1.34.43,2.61.83,3.93,1.01,2.56.34,5.12-.08,7.82-.52.78-.13,1.56-.26,2.35-.37,2.94-.42,7.25-.73,10.64,1.48.63.41,1.69.81,2.91,1.28,4.97,1.9,13.29,5.08,17.43,16.87.72,2.05.48,4.17.25,6.22-.14,1.23-.28,2.51-.21,3.72.09,1.3.44,2.55.81,3.87.27.98.56,1.99.73,3.02.79,4.84-.98,9.31-2.6,12.21-.95,1.69-2.14,3.4-3.75,5.37-.17.21-.43.31-.7.27-1.29-.21-2.51-.11-3.27,0-.16.24-.41.62-.71,1.07-2.2,3.31-2.88,4.32-3.03,4.48-.03.04-.07.07-.11.1-.05.04-1.07.77-2.31.77ZM264.07,140.89c3.29,0,5.41.76,5.98,3.63.89,4.43.59,11.46.36,17.11-.13,3.2-.25,5.97-.09,7.25.26,2.15.86,3.49,1.73,3.88.78.34,1.66-.15,1.92-.31.32-.45,1.95-2.9,2.85-4.25.49-.73.85-1.28.91-1.36.12-.16.29-.27.49-.31.72-.12,2.1-.28,3.63-.1,1.42-1.77,2.48-3.31,3.34-4.83,1.5-2.69,3.14-6.82,2.43-11.23-.16-.95-.42-1.88-.69-2.86-.38-1.34-.76-2.73-.86-4.18-.09-1.34.06-2.68.21-3.98.22-1.97.43-3.84-.17-5.56-3.9-11.13-11.82-14.15-16.55-15.96-1.36-.52-2.43-.93-3.19-1.42-2.26-1.47-5.32-1.87-9.62-1.25-.77.11-1.54.24-2.31.36-2.69.44-5.48.9-8.27.53-1.46-.2-2.85-.64-4.19-1.07-1-.32-2.03-.65-3.06-.86-13.24-2.74-17.35,7.36-18.5,11.82-1.08,4.22,1.35,8.53,4.24,10.93h0c1.02.85,2.16,1.57,3.45,2.21.39-.84.84-1.69,1.37-2.59.14-.24.38-.39.67-.37.27.01.52.17.64.42,1.71,3.48,2.64,4.1,7.08,4.74,8.33,1.2,15.33.51,20.44.01,2.18-.21,4.11-.4,5.75-.4Z"></path></g><g><path class="cls-3" d="M235.39,158.83s-6.42,11.15-6.21,14.36c.21,3.21,4.44,4.53,4.44,4.53,1.98.85,8.69-2.17,8.69-2.17"></path><path class="cls-4" d="M234.54,178.61c-.47,0-.88-.06-1.21-.2-.12-.03-4.65-1.49-4.89-5.17-.22-3.34,5.64-13.62,6.31-14.78.21-.36.67-.48,1.02-.28.36.21.48.67.28,1.02-1.75,3.05-6.27,11.49-6.11,13.93.17,2.65,3.88,3.85,3.92,3.87,1.23.52,5.5-.94,8.15-2.14.38-.17.82,0,.99.38s0,.82-.38.99c-.99.45-5.43,2.38-8.08,2.38Z"></path></g><g><path class="cls-4" d="M261,196.36s-6.79,9.01-24.62,7.44l-.98,7.97s20,5.04,25.6-15.41Z"></path><path class="cls-4" d="M240.58,213.04c-3.12,0-5.31-.52-5.37-.54-.37-.09-.61-.44-.56-.82l.98-7.97c.05-.4.42-.68.81-.66,17.22,1.51,23.89-7.06,23.96-7.15.22-.29.61-.38.93-.22.32.16.49.52.39.87-3.88,14.17-14.58,16.48-21.14,16.48ZM236.22,211.18c3.25.63,17.44,2.44,23.11-12.17-3.25,2.61-10.22,6.48-22.3,5.6l-.81,6.57Z"></path></g><ellipse class="cls-4" cx="248.95" cy="156.79" rx="3.09" ry="2.12" transform="translate(70.44 390.66) rotate(-84.85)"></ellipse><ellipse class="cls-4" cx="228.39" cy="155.98" rx="3.09" ry="2.12" transform="translate(52.54 369.46) rotate(-84.85)"></ellipse><g><path class="cls-3" d="M279.47,171.22s4.44,2.97,2.75,7.48"></path><path class="cls-4" d="M282.22,179.46c-.09,0-.18-.02-.26-.05-.39-.15-.58-.58-.44-.97,1.46-3.89-2.3-6.49-2.46-6.6-.34-.23-.43-.7-.2-1.04.23-.34.7-.44,1.04-.21,1.71,1.14,4.54,4.36,3.03,8.37-.11.3-.4.49-.7.49Z"></path></g></g><g><path class="cls-4" d="M262.6,196.29c-.69.95-1.56,1.86-2.63,2.68-5.34,4.16-16.29,7.77-25.94,4.32"></path><path class="cls-3" d="M242.34,205.44c-2.81,0-5.71-.42-8.56-1.44-.39-.14-.59-.57-.45-.96.14-.39.57-.6.96-.45,8.81,3.16,19.57.19,25.22-4.21.98-.76,1.81-1.61,2.48-2.53.24-.33.71-.41,1.05-.17.33.24.41.71.17,1.05-.75,1.03-1.68,1.99-2.77,2.83-3.61,2.8-10.53,5.88-18.09,5.88Z"></path></g><g><path class="cls-4" d="M228.14,185.05s2.98,3.21,8.8,3.67c5.81.46,8.87-2.91,8.87-2.91"></path><path class="cls-3" d="M238.03,189.51c-.37,0-.75-.01-1.15-.05-6.04-.48-9.16-3.77-9.29-3.91-.28-.3-.26-.78.04-1.06.3-.28.78-.26,1.06.04.03.03,2.88,3.01,8.31,3.44,5.35.43,8.14-2.54,8.26-2.67.28-.3.75-.33,1.06-.04.3.28.33.75.05,1.06-.13.14-2.97,3.2-8.34,3.2Z"></path></g><path class="cls-4" d="M250.02,241.4c-19.94,0-38.53-9.88-49.71-26.43-6.7-9.91-10.25-21.51-10.25-33.53,0-.41.34-.75.75-.75s.75.34.75.75c0,11.72,3.45,23.03,9.99,32.69,10.91,16.13,29.03,25.77,48.47,25.77,20.57,0,39.86-11.01,50.35-28.73,4.71-7.96,7.48-17.06,8.01-26.32.02-.41.38-.74.79-.71.41.02.73.38.71.79-.55,9.5-3.39,18.83-8.22,27-10.75,18.17-30.54,29.46-51.64,29.46Z"></path></g><g><g><line class="cls-1" x1="168.99" y1="105.74" x2="160.73" y2="114"></line><path class="cls-4" d="M160.73,114.75c-.19,0-.38-.07-.53-.22-.29-.29-.29-.77,0-1.06l8.26-8.26c.29-.29.77-.29,1.06,0s.29.77,0,1.06l-8.26,8.26c-.15.15-.34.22-.53.22Z"></path></g><g><line class="cls-1" x1="168.99" y1="114" x2="160.73" y2="105.74"></line><path class="cls-4" d="M168.99,114.75c-.19,0-.38-.07-.53-.22l-8.26-8.26c-.29-.29-.29-.77,0-1.06s.77-.29,1.06,0l8.26,8.26c.29.29.29.77,0,1.06-.15.15-.34.22-.53.22Z"></path></g></g><path class="cls-4" d="M327.94,114.75c-.23,0-.45-.1-.6-.3-.25-.33-.18-.8.15-1.05l4.71-3.53-4.71-3.53c-.33-.25-.4-.72-.15-1.05.25-.33.72-.4,1.05-.15l5.5,4.13c.19.14.3.36.3.6s-.11.46-.3.6l-5.5,4.13c-.13.1-.29.15-.45.15Z"></path><g><g><g><path class="cls-4" d="M172.31,288.58s-4.68,8.9.78,16.39c5.46,7.49,8.9-13.74,8.9-13.74l-9.68-2.65Z"></path><path class="cls-4" d="M175.4,307.32c-1.01,0-1.98-.64-2.91-1.91-5.67-7.78-1.04-16.8-.84-17.19.17-.31.52-.46.86-.37l9.68,2.65c.37.1.6.46.54.84-.4,2.48-2.61,14.91-6.76,15.91-.19.05-.39.07-.58.07ZM172.72,289.47c-.86,1.99-3.4,9.07.97,15.06.71.98,1.36,1.41,1.93,1.27,2.36-.57,4.57-8.63,5.51-14.02l-8.42-2.31Z"></path></g><g><path class="cls-2" d="M215.05,336.52v27.59h-53v-26.75c2.86-1.28,6.13-2.24,9.42-2.24h29.48c5.82,0,10.47.59,14.1,1.4Z"></path><g><g><path class="cls-3" d="M179.71,332.84c-.01.29-.31,2.64-.68,5.45-.12.88-.08,2.62.66,4.54,2.03,5.32,9.63,4.93,14.72,1.72,4.26-2.68,6.29-7.9,6.29-7.9l2.68-16.57c1.27.43,6.82,1.42,7.38-4.3.36-3.68-1.58-4.8-3.35-5.07-.95-.15-1.85-.05-2.31.03-.11.16-.23.31-.36.45h0c-.11.13-.22.25-.34.36-.71.66-1.89,1.04-2.62.4-.43-.38-.55-.98-.66-1.55-.91-5.08-1.78-10.55.37-15.24-.11-.16-.21-.33-.32-.51-.32-.51-.65-1.07-.99-1.59h0c-.75-1.12-1.62-2.1-2.86-2.3q-2.5-.41-4.33.48c-2.9,1.41-4.87,3.39-8.86,3.51-2.89.08-6.18-.94-8.18-2.4-.37.62-.71,1.27-.99,1.94-.62,1.4-1.06,2.9-1.29,4.48-1.26,8.49-2.55,17.89-2.79,22.48-.52,9.49,8.86,11.59,8.86,11.59Z"></path><path class="cls-4" d="M186.6,347.66c-1.17,0-2.28-.16-3.28-.5-2.08-.7-3.58-2.1-4.33-4.06-.74-1.94-.85-3.8-.7-4.91.13-.99.47-3.61.61-4.8-2.21-.72-9.27-3.68-8.8-12.18.21-3.83,1.15-11.42,2.8-22.54.24-1.64.7-3.22,1.35-4.68.27-.65.61-1.31,1.03-2.02.11-.18.29-.31.49-.35.2-.04.42,0,.59.13,1.93,1.4,5.12,2.32,7.72,2.25,2.73-.08,4.47-1.11,6.32-2.2.71-.42,1.44-.85,2.24-1.24,1.99-.96,2.12-.98,4.78-.55,1.56.25,2.59,1.48,3.31,2.55.02.02.04.05.06.08.21.32.42.66.62.99.13.21.25.42.38.62l.08.12c.08.12.15.25.23.37.15.22.17.49.06.73-1.97,4.3-1.31,9.24-.31,14.79.09.49.18.91.41,1.12.37.32,1.13.06,1.62-.39.11-.1.2-.19.29-.3.02-.02.05-.05.07-.07.05-.06.15-.19.24-.32.12-.16.29-.27.49-.31.49-.08,1.48-.2,2.55-.03,1.67.25,4.42,1.35,3.98,5.88-.2,2.04-1.01,3.53-2.39,4.43-1.64,1.06-3.75,1-5.13.73l-2.55,15.76c0,.05-.02.1-.04.15-.09.22-2.17,5.48-6.59,8.27-2.56,1.61-5.52,2.47-8.21,2.47ZM176.18,293.41c-.21.4-.4.78-.56,1.17-.6,1.35-1.02,2.79-1.24,4.3-1.65,11.08-2.58,18.62-2.79,22.41-.48,8.75,7.92,10.74,8.28,10.82.35.08.6.4.58.76,0,.2-.1,1.01-.68,5.51-.12.88-.03,2.5.61,4.18.59,1.55,1.74,2.62,3.4,3.18,2.86.96,6.97.22,10.22-1.82,3.74-2.35,5.71-6.86,5.96-7.47l2.66-16.49c.04-.22.16-.41.35-.52.19-.11.42-.14.63-.07.76.25,3.07.69,4.68-.35.98-.63,1.56-1.75,1.71-3.31.25-2.55-.64-3.94-2.71-4.25-.7-.11-1.37-.07-1.79-.02-.07.09-.14.17-.21.25,0,0-.01.02-.02.02-.12.14-.24.26-.38.39-.97.89-2.56,1.33-3.62.4-.64-.56-.79-1.38-.9-1.97-.83-4.61-1.85-10.32.26-15.31l-.04-.06-.07-.12c-.13-.21-.26-.42-.39-.64-.18-.29-.36-.59-.55-.87-.02-.02-.04-.04-.05-.07-.84-1.25-1.54-1.84-2.36-1.98q-2.26-.37-3.88.42c-.75.36-1.45.78-2.13,1.18-1.93,1.14-3.92,2.31-7.04,2.4-2.65.07-5.75-.74-7.95-2.08Z"></path></g><g><path class="cls-4" d="M171.24,316.6s1.37-1.83,3.89-.91,5.1,1.52,7.85,1.07,9.75-1.36,12.8.12c3.64,1.77,2.32,9.84-1.79,13.04-4.01,3.12-13.22,5.73-19.69.32-5.73-4.79-5.03-11.12-3.05-13.64Z"></path><path class="cls-4" d="M183.31,334.1c-3.28,0-6.66-.91-9.5-3.29-5.79-4.83-5.55-11.62-3.16-14.67.59-.79,2.34-2.03,4.74-1.16,2,.73,4.65,1.5,7.47,1.03,2.25-.37,9.85-1.47,13.25.19,1.4.68,2.29,2.17,2.5,4.18.38,3.63-1.41,7.98-4.16,10.12-2.51,1.95-6.74,3.59-11.13,3.6ZM173.76,316.18c-1.25,0-1.91.86-1.92.87,0,0,0,0-.01.01-1.68,2.13-2.54,8.02,2.94,12.6,6.02,5.03,14.75,2.77,18.75-.34,2.61-2.03,3.87-6.06,3.58-8.78-.11-1.05-.49-2.42-1.66-2.99-2.39-1.16-7.94-.79-12.35-.06-3.16.53-6.06-.31-8.23-1.1-.41-.15-.78-.21-1.11-.21ZM171.24,316.6h0,0Z"></path></g><g><path class="cls-4" d="M172.33,292.69c.79.66,1.67,1.18,2.61,1.6.29-.68.62-1.32.99-1.94,1.08,2.2,1.76,2.7,4.63,3.12,11.3,1.63,18.28-2.4,19.08,1.6.84,4.19-.11,12.53.15,14.7.52,4.23,2.97,2.44,2.97,2.44.13-.14,2.22-3.31,2.33-3.47.47-.08,1.36-.18,2.31-.03.82-1.01,1.59-2.05,2.22-3.18,1.2-2.15,1.92-4.66,1.52-7.09-.23-1.42-.84-2.77-.94-4.22-.13-1.98.66-4.02,0-5.89-3.07-8.77-10.1-9.44-12.13-10.75-1.77-1.15-4.04-1.12-6.13-.83-2.09.29-4.19.82-6.28.54-1.49-.2-2.88-.86-4.35-1.16-8.47-1.75-11.06,4.91-11.72,7.49-.66,2.59.66,5.37,2.72,7.08Z"></path><path class="cls-4" d="M201.64,315.33c-.26,0-.54-.05-.83-.17-.95-.41-1.55-1.53-1.77-3.31-.11-.87-.04-2.51.05-4.58.14-3.35.32-7.53-.19-10.07-.28-1.41-1.65-1.4-5.8-.99-3.16.31-7.47.73-12.66-.01-2.47-.36-3.55-.83-4.51-2.3-.11.23-.22.46-.31.68-.08.19-.23.33-.42.41-.19.07-.4.07-.58-.01-1.06-.48-1.97-1.04-2.78-1.71h0c-2.45-2.03-3.64-5.18-2.96-7.84.61-2.37,3.32-9.95,12.6-8.03.68.14,1.34.35,1.98.55.8.25,1.55.5,2.33.6,1.51.2,3.03-.05,4.65-.32.48-.08.95-.16,1.43-.22,1.82-.26,4.5-.45,6.64.94.36.23.98.47,1.71.75,3.06,1.17,8.17,3.12,10.72,10.38.46,1.3.31,2.62.16,3.9-.09.77-.17,1.49-.12,2.2.05.75.26,1.5.48,2.28.17.6.34,1.22.45,1.86.49,3.01-.6,5.78-1.61,7.58-.59,1.04-1.32,2.09-2.29,3.29-.17.21-.44.31-.7.27-.68-.11-1.34-.07-1.76-.02-.1.15-.23.34-.37.56-1.55,2.33-1.75,2.62-1.84,2.71-.03.04-.07.07-.11.1-.09.07-.75.52-1.56.52ZM196.44,294.48c2.11,0,3.55.5,3.93,2.43.54,2.72.36,6.99.22,10.42-.08,1.93-.15,3.59-.06,4.34.2,1.64.68,2.02.87,2.11.3.13.68-.05.84-.14.23-.33,1.18-1.76,1.66-2.48.31-.46.54-.81.57-.86.12-.16.29-.27.49-.31.43-.07,1.22-.16,2.11-.08.79-1,1.4-1.88,1.89-2.76.89-1.58,1.85-4.02,1.43-6.6-.09-.56-.25-1.11-.41-1.7-.23-.83-.47-1.68-.53-2.59-.06-.84.04-1.66.13-2.46.13-1.16.25-2.25-.09-3.23-2.31-6.6-7.02-8.4-9.84-9.48-.84-.32-1.5-.57-1.99-.89-1.31-.85-3.09-1.08-5.61-.71-.47.07-.93.14-1.39.22-1.65.27-3.36.55-5.09.32-.91-.12-1.76-.39-2.58-.66-.63-.2-1.22-.39-1.82-.51-7.76-1.61-10.17,4.32-10.84,6.94-.62,2.43.79,4.92,2.47,6.31h0c.53.44,1.11.82,1.76,1.17.21-.43.44-.86.71-1.32.14-.24.39-.4.67-.37.27,0,.52.17.64.42.94,1.91,1.36,2.32,4.06,2.71,5,.72,9.22.31,12.3,0,1.29-.13,2.46-.24,3.48-.24Z"></path></g><g><path class="cls-3" d="M181.69,306.33s-3.89,6.74-3.76,8.69c.13,1.94,2.69,2.74,2.69,2.74,1.2.51,5.26-1.31,5.26-1.31"></path><path class="cls-4" d="M181.16,318.59c-.32,0-.61-.04-.84-.14-.05-.01-2.98-.96-3.14-3.38-.14-2.06,3.19-7.95,3.86-9.11.21-.36.67-.48,1.02-.28.36.21.48.67.28,1.02-1.57,2.72-3.74,7.08-3.66,8.26.09,1.4,2.14,2.07,2.16,2.08.55.23,2.72-.38,4.72-1.28.38-.17.82,0,.99.38s0,.82-.38.99c-.85.38-3.39,1.46-5.02,1.46Z"></path></g><g><path class="cls-4" d="M194.6,328.33s-4.11,5.45-14.9,4.5l-.59,4.82s12.1,3.05,15.49-9.33Z"></path><path class="cls-4" d="M182.26,338.72c-1.93,0-3.29-.32-3.33-.33-.37-.09-.61-.44-.56-.82l.59-4.82c.05-.4.42-.69.81-.66,10.2.89,14.19-4.16,14.23-4.21.22-.29.61-.37.93-.22.32.16.49.52.39.87-2.4,8.76-9.01,10.19-13.07,10.19ZM179.94,337.06c2.23.38,9.52.98,12.96-6.25-2.25,1.5-6.25,3.23-12.53,2.83l-.42,3.42Z"></path></g><ellipse class="cls-4" cx="190" cy="304.51" rx="1.87" ry="1.28" transform="translate(-130.33 466.42) rotate(-84.85)"></ellipse><ellipse class="cls-4" cx="177.57" cy="303.91" rx="1.87" ry="1.28" transform="translate(-141.05 453.49) rotate(-84.85)"></ellipse><g><path class="cls-3" d="M205.78,313.13s2.68,1.8,1.66,4.53"></path><path class="cls-4" d="M207.44,318.4c-.09,0-.18-.02-.26-.05-.39-.15-.58-.58-.44-.97.8-2.13-1.29-3.58-1.38-3.64-.34-.23-.43-.7-.2-1.04.23-.34.69-.44,1.04-.2,1.1.74,2.92,2.81,1.95,5.41-.11.3-.4.49-.7.49Z"></path></g></g><g><path class="cls-4" d="M195.57,328.29c-.42.58-.95,1.12-1.59,1.62-3.23,2.52-9.85,4.7-15.69,2.61"></path><path class="cls-3" d="M183.31,334.12c-1.73,0-3.52-.26-5.27-.89-.39-.14-.59-.57-.45-.96.14-.39.56-.6.96-.45,5.23,1.87,11.62.11,14.98-2.5.57-.44,1.05-.94,1.44-1.47.24-.33.71-.41,1.05-.17.33.24.41.71.17,1.05-.47.65-1.05,1.24-1.73,1.77-2.22,1.73-6.48,3.62-11.13,3.62Z"></path></g><g><path class="cls-4" d="M188.9,322.26s-2.7,4.02-6.86,3.64c-4.16-.38-5.78-4.28-5.78-4.28l12.63.64Z"></path><path class="cls-3" d="M182.61,326.68c-.21,0-.42,0-.63-.03-4.55-.42-6.33-4.56-6.4-4.74-.1-.24-.07-.51.08-.72.15-.21.38-.33.65-.32l12.63.64c.27.01.51.17.63.41.12.24.1.53-.05.75-.12.17-2.73,4-6.91,4ZM177.6,322.45c.75,1.05,2.18,2.5,4.51,2.71,2.34.21,4.18-1.18,5.23-2.22l-9.74-.49Z"></path></g></g></g><path class="cls-4" d="M215.05,364.86h-53c-.41,0-.75-.34-.75-.75v-103.74c0-.41.34-.75.75-.75h53c.41,0,.75.34.75.75v103.74c0,.41-.34.75-.75.75ZM162.8,363.36h51.5v-102.24h-51.5v102.24Z"></path></g><g><g><g><path class="cls-4" d="M292.05,288.58s-4.68,8.9.78,16.39,8.9-13.74,8.9-13.74l-9.68-2.65Z"></path><path class="cls-4" d="M295.14,307.32c-1.01,0-1.98-.64-2.91-1.91-5.67-7.78-1.04-16.8-.84-17.19.16-.31.52-.46.86-.37l9.68,2.65c.37.1.6.46.54.84-.4,2.48-2.61,14.91-6.76,15.91-.19.05-.39.07-.58.07ZM292.47,289.47c-.86,1.99-3.4,9.07.97,15.06.71.98,1.36,1.41,1.93,1.27,2.36-.57,4.57-8.63,5.51-14.02l-8.42-2.31Z"></path></g><g><path class="cls-3" d="M293.47,308.71s-3.68-1.74-4.35.58c-.52,1.79-.97,5.13.1,6.48,1.06,1.35,2.52,1.45,2.52,1.45l1.74-8.52Z"></path><path class="cls-4" d="M291.73,317.97s-.03,0-.05,0c-.07,0-1.8-.14-3.06-1.74-1.33-1.7-.73-5.43-.23-7.16.2-.7.64-1.22,1.27-1.5,1.58-.71,3.87.33,4.12.45.31.15.48.49.41.83l-1.74,8.52c-.07.35-.38.6-.73.6ZM290.94,308.83c-.25,0-.48.03-.66.12-.23.1-.36.27-.44.55-.6,2.05-.78,4.86-.03,5.81.44.56.95.85,1.35,1l1.46-7.15c-.51-.18-1.14-.34-1.67-.34Z"></path></g><g><path class="cls-2" d="M334.79,336.52v27.59h-53v-26.75c2.86-1.28,6.13-2.24,9.42-2.24h29.48c5.82,0,10.47.59,14.1,1.4Z"></path><g><g><path class="cls-3" d="M299.45,332.84c-.01.29-.31,2.64-.68,5.45-.12.88-.08,2.62.66,4.54,2.03,5.32,9.63,4.93,14.72,1.72,4.26-2.68,6.29-7.9,6.29-7.9l2.68-16.57c1.27.43,5.31,1.32,5.87-4.4.36-3.68-.07-4.7-1.84-4.97-.95-.15-1.85-.05-2.31.03-.11.16-.23.31-.36.45h0c-.11.13-.22.25-.34.36-.71.66-1.89,1.04-2.62.4-.43-.38-.55-.98-.66-1.55-.91-5.08-1.78-10.55.37-15.24-.11-.16-.21-.33-.32-.51-.32-.51-.65-1.07-.99-1.59h0c-.75-1.12-1.62-2.1-2.86-2.3q-2.5-.41-4.33.48c-2.9,1.41-4.87,3.39-8.86,3.51-2.89.08-6.18-.94-8.18-2.4-.37.62-.71,1.27-.99,1.94-.62,1.4-1.06,2.9-1.29,4.48-1.26,8.49-2.55,17.89-2.79,22.48-.52,9.49,8.86,11.59,8.86,11.59Z"></path><path class="cls-4" d="M306.34,347.66c-1.17,0-2.28-.16-3.28-.5-2.08-.7-3.58-2.1-4.33-4.07-.74-1.94-.85-3.81-.7-4.91.13-.99.47-3.61.61-4.8-2.21-.72-9.27-3.68-8.8-12.18.21-3.84,1.15-11.43,2.8-22.54.24-1.64.7-3.22,1.35-4.68.27-.65.61-1.31,1.03-2.02.11-.18.29-.31.49-.35.2-.04.42,0,.59.13,1.93,1.4,5.12,2.33,7.72,2.25,2.73-.08,4.47-1.11,6.32-2.2.71-.42,1.43-.85,2.24-1.24,1.99-.96,2.12-.98,4.78-.55,1.56.25,2.59,1.48,3.32,2.55.02.02.04.05.05.07.22.33.43.67.64,1.01l.43.69c.08.13.17.26.25.39.15.22.17.49.06.73-1.97,4.3-1.31,9.24-.31,14.79.09.49.18.91.41,1.12.37.33,1.13.06,1.62-.39.11-.1.2-.19.29-.3.02-.02.05-.05.07-.07.05-.06.15-.19.24-.32.12-.16.29-.27.49-.3.5-.08,1.48-.19,2.55-.03,2.53.38,2.81,2.25,2.47,5.78-.23,2.29-1.01,3.88-2.33,4.73-1.25.81-2.69.74-3.68.54l-2.54,15.75c0,.05-.02.1-.04.15-.09.22-2.17,5.48-6.59,8.27-2.56,1.61-5.52,2.47-8.21,2.47ZM295.92,293.41c-.21.4-.4.78-.56,1.17-.6,1.35-1.02,2.79-1.24,4.3-1.65,11.07-2.58,18.61-2.79,22.41-.48,8.73,7.92,10.74,8.28,10.82.35.08.6.4.58.76,0,.2-.1,1.01-.68,5.51-.12.88-.03,2.5.61,4.18.59,1.55,1.74,2.62,3.4,3.18,2.86.95,6.97.22,10.22-1.82,3.74-2.35,5.71-6.86,5.96-7.47l2.66-16.49c.04-.22.16-.41.35-.52.19-.11.42-.14.63-.07.59.2,2.1.59,3.24-.15.91-.59,1.47-1.81,1.65-3.62.39-3.91-.25-4.01-1.2-4.15-.7-.11-1.37-.07-1.79-.02-.07.09-.14.17-.21.25,0,0-.02.02-.02.02-.12.14-.25.26-.38.39-.96.88-2.56,1.33-3.62.4-.64-.56-.79-1.41-.9-1.97-.83-4.61-1.85-10.32.26-15.3l-.05-.08-.06-.1c-.13-.2-.25-.41-.38-.61-.18-.3-.37-.61-.56-.9-.02-.02-.03-.04-.05-.06-.84-1.25-1.54-1.84-2.36-1.98q-2.26-.37-3.88.42c-.75.36-1.45.78-2.13,1.18-1.93,1.14-3.92,2.31-7.04,2.4-2.65.07-5.75-.74-7.95-2.08Z"></path></g><g><path class="cls-4" d="M290.98,316.6s1.37-1.83,3.89-.91,10.75,2.05,14.96,1.92c5.52-.39,7.57-4.03,9.1-3.29,3.64,1.77-1.08,12.39-5.2,15.59-4.01,3.12-13.22,5.73-19.69.32-5.73-4.79-5.03-11.12-3.05-13.64Z"></path><path class="cls-4" d="M303.05,334.1c-3.28,0-6.66-.91-9.5-3.29-5.79-4.83-5.55-11.62-3.16-14.67.59-.79,2.34-2.03,4.74-1.16,2.38.86,10.53,2.01,14.68,1.88,2.95-.21,4.86-1.43,6.26-2.33,1.16-.74,2.17-1.38,3.19-.89.67.33,1.51,1.07,1.69,2.76.44,4.22-3.43,11.52-6.75,14.1-2.51,1.95-6.73,3.6-11.13,3.6ZM293.49,316.18c-1.18,0-1.83.77-1.91.88,0,0,0,0,0,0-1.68,2.13-2.54,8.02,2.94,12.6,6.03,5.03,14.75,2.77,18.75-.34,3.18-2.48,6.54-9.39,6.18-12.76-.13-1.21-.67-1.48-.85-1.56-.27-.12-.97.32-1.72.8-1.45.93-3.63,2.33-6.99,2.56-4.42.14-12.73-1.04-15.27-1.97-.42-.15-.79-.21-1.12-.21ZM290.98,316.6h0,0Z"></path></g><g><path class="cls-4" d="M292.07,292.69c.79.66,1.67,1.18,2.61,1.6.29-.68.62-1.32.99-1.94,1.08,2.2,1.62,4.53,4.48,4.94,11.3,1.63,18.43-4.23,19.23-.23.84,4.19-.11,12.53.15,14.7.52,4.23,2.97,2.44,2.97,2.44.13-.14,2.22-3.31,2.33-3.47.47-.08,1.36-.18,2.31-.03.82-1.01,1.59-2.05,2.22-3.18,1.2-2.15,1.92-4.66,1.52-7.09-.23-1.42-.84-2.77-.94-4.22-.13-1.98.66-4.02,0-5.89-3.07-8.77-10.1-9.44-12.13-10.75-1.77-1.15-4.04-1.12-6.13-.83-2.09.29-4.19.82-6.28.54-1.49-.2-2.88-.86-4.35-1.16-8.47-1.75-11.06,4.91-11.72,7.49-.66,2.59.66,5.37,2.72,7.08Z"></path><path class="cls-4" d="M321.38,315.33c-.26,0-.54-.05-.83-.17-.95-.41-1.55-1.53-1.77-3.31-.11-.87-.04-2.51.05-4.58.14-3.35.32-7.52-.19-10.07-.09-.44-.25-.58-.36-.65-.63-.41-2.37,0-4.38.46-3.4.79-8.05,1.86-13.86,1.02-2.66-.38-3.6-2.18-4.43-4.01-.09.19-.17.37-.25.56-.08.19-.23.33-.42.41-.19.07-.4.07-.58-.01-1.06-.48-1.97-1.04-2.78-1.7h0c-2.45-2.04-3.64-5.19-2.96-7.84.61-2.37,3.31-9.95,12.6-8.03.68.14,1.34.35,1.98.55.8.25,1.55.5,2.33.6,1.5.2,3.03-.05,4.65-.32.48-.08.95-.16,1.43-.22,1.83-.26,4.5-.45,6.64.94.36.23.98.47,1.71.75,3.06,1.17,8.17,3.12,10.72,10.38.46,1.3.31,2.62.16,3.9-.09.77-.17,1.49-.12,2.2.05.75.26,1.5.48,2.28.17.6.34,1.22.45,1.86.49,3.01-.6,5.78-1.61,7.58-.59,1.04-1.32,2.09-2.29,3.29-.17.21-.43.31-.7.27-.68-.11-1.34-.07-1.76-.02-.11.16-.25.37-.41.62-1.52,2.29-1.71,2.56-1.8,2.66-.03.04-.07.07-.11.1-.09.07-.75.52-1.56.52ZM317.46,294.88c.64,0,1.18.12,1.64.41.52.34.87.88,1.01,1.62.54,2.72.36,6.99.22,10.42-.08,1.93-.15,3.59-.06,4.34.2,1.64.67,2.02.87,2.11.3.13.68-.05.84-.14.22-.32,1.12-1.67,1.62-2.42.33-.49.58-.87.62-.92.12-.16.29-.27.49-.3.43-.07,1.22-.16,2.11-.08.79-1,1.4-1.88,1.89-2.76.89-1.58,1.85-4.02,1.43-6.6-.09-.56-.25-1.11-.41-1.7-.23-.83-.47-1.68-.53-2.59-.06-.84.04-1.66.13-2.46.13-1.16.25-2.25-.09-3.23-2.31-6.6-7.02-8.4-9.84-9.48-.84-.32-1.5-.57-1.99-.89-1.3-.85-3.09-1.08-5.62-.71-.47.07-.93.14-1.39.22-1.65.27-3.36.55-5.09.32-.91-.12-1.76-.39-2.58-.66-.63-.2-1.22-.39-1.82-.51-7.76-1.6-10.17,4.32-10.84,6.94-.62,2.43.79,4.92,2.47,6.31h0c.53.44,1.11.82,1.76,1.17.21-.43.44-.86.71-1.32.14-.24.39-.4.67-.37.27,0,.52.17.64.42.18.36.34.73.5,1.09.79,1.76,1.42,3.16,3.41,3.45,5.53.8,10.03-.24,13.31-1,1.61-.37,2.88-.67,3.9-.67Z"></path></g><g><path class="cls-3" d="M303.46,306.33s-3.89,6.74-3.76,8.69c.13,1.94,2.69,2.74,2.69,2.74,1.2.51,5.26-1.31,5.26-1.31"></path><path class="cls-4" d="M302.94,318.59c-.32,0-.61-.04-.84-.14-.05-.01-2.98-.96-3.14-3.38-.14-2.06,3.19-7.95,3.86-9.11.21-.36.67-.48,1.02-.28.36.21.48.67.28,1.02-1.57,2.72-3.74,7.08-3.66,8.26.09,1.4,2.14,2.07,2.16,2.08.55.23,2.72-.38,4.72-1.28.38-.17.82,0,.99.38s0,.82-.38.99c-.85.38-3.39,1.46-5.02,1.46Z"></path></g><g><path class="cls-4" d="M314.34,328.33s-4.11,5.45-14.9,4.5l-.59,4.82s12.1,3.05,15.49-9.33Z"></path><path class="cls-4" d="M302,338.72c-1.93,0-3.29-.32-3.33-.33-.37-.09-.61-.44-.56-.82l.59-4.82c.05-.4.42-.69.81-.66,10.21.89,14.19-4.16,14.23-4.21.22-.29.61-.38.93-.22.32.16.49.52.39.87-2.4,8.76-9.01,10.19-13.07,10.19ZM299.68,337.06c2.23.38,9.52.98,12.96-6.25-2.24,1.5-6.25,3.23-12.53,2.83l-.42,3.42Z"></path></g><ellipse class="cls-4" cx="311.39" cy="305" rx="1.87" ry="1.28" transform="translate(-20.32 587.76) rotate(-84.85)"></ellipse><ellipse class="cls-4" cx="298.47" cy="304.58" rx="1.87" ry="1.28" transform="translate(-31.67 574.52) rotate(-84.85)"></ellipse><g><path class="cls-3" d="M326.47,313.06s.87,2.52-1.06,4.64"></path><path class="cls-4" d="M325.41,318.46c-.18,0-.36-.06-.5-.2-.31-.28-.33-.75-.05-1.06,1.6-1.76.94-3.81.91-3.9-.13-.39.08-.82.47-.95.39-.13.81.07.95.46.04.12.99,2.96-1.22,5.39-.15.16-.35.25-.55.25Z"></path></g></g><g><path class="cls-4" d="M315.31,328.29c-.42.58-.95,1.12-1.59,1.62-3.23,2.52-9.85,4.7-15.69,2.61"></path><path class="cls-3" d="M303.05,334.12c-1.73,0-3.52-.26-5.27-.89-.39-.14-.59-.57-.45-.96.14-.39.56-.6.96-.45,5.23,1.87,11.62.11,14.98-2.5.57-.44,1.05-.94,1.44-1.47.24-.34.71-.41,1.05-.17.33.24.41.71.17,1.05-.47.65-1.06,1.25-1.74,1.77-2.22,1.73-6.48,3.62-11.13,3.62Z"></path></g><g><path class="cls-4" d="M311.76,322.75s-1.23,1.93-5.39,2.51c-4.16.58-7.65-.87-7.65-.87"></path><path class="cls-3" d="M304.35,326.14c-3.31,0-5.79-1.01-5.91-1.07-.38-.16-.56-.6-.4-.98.16-.38.6-.56.98-.41.03.01,3.36,1.37,7.25.82,3.7-.52,4.85-2.16,4.86-2.17.23-.34.7-.44,1.04-.21.34.22.44.68.22,1.02-.06.09-1.46,2.23-5.92,2.85-.73.1-1.45.14-2.13.14Z"></path></g></g></g><path class="cls-4" d="M334.79,364.86h-53c-.41,0-.75-.34-.75-.75v-103.74c0-.41.34-.75.75-.75h53c.41,0,.75.34.75.75v103.74c0,.41-.34.75-.75.75ZM282.54,363.36h51.5v-102.24h-51.5v102.24Z"></path></g><g><g><g><path class="cls-4" d="M264.04,320.57s4.68,8.9-.78,16.39c-5.46,7.49-8.9-13.74-8.9-13.74l9.68-2.65Z"></path><path class="cls-4" d="M260.95,339.32c-.19,0-.38-.02-.58-.07-4.14-.99-6.36-13.42-6.76-15.9-.06-.38.17-.74.54-.84l9.68-2.65c.34-.09.7.06.86.37.2.38,4.84,9.4-.84,17.19-.93,1.27-1.9,1.91-2.91,1.91ZM255.21,323.77c.94,5.39,3.15,13.46,5.51,14.02.57.13,1.21-.29,1.93-1.27,4.37-6,1.83-13.07.97-15.06l-8.42,2.31Z"></path></g><g><path class="cls-2" d="M221.3,368.52v27.59h53v-26.75c-2.86-1.28-6.13-2.24-9.42-2.24h-29.48c-5.82,0-10.47.59-14.1,1.4Z"></path><g><g><path class="cls-3" d="M256.64,364.84c.01.29.31,2.64.68,5.45.12.88.08,2.62-.66,4.54-2.03,5.32-9.63,4.93-14.72,1.72-4.26-2.68-6.29-7.9-6.29-7.9l-2.68-16.57c-1.27.43-6.82,1.42-7.38-4.3-.36-3.68,1.58-4.8,3.35-5.07.95-.15,1.85-.05,2.31.03.11.16.23.31.36.45h0c.11.13.22.25.34.36.71.66,1.89,1.04,2.62.4.43-.38.55-.98.66-1.55.91-5.08,1.78-10.55-.37-15.24.11-.16.21-.33.32-.51.32-.51.65-1.07.99-1.59h0c.75-1.12,1.62-2.1,2.86-2.3q2.5-.41,4.33.48c2.9,1.41,4.87,3.39,8.86,3.51,2.89.08,6.18-.94,8.18-2.4.37.62.71,1.27.99,1.94.62,1.4,1.06,2.9,1.29,4.48,1.26,8.49,2.55,17.89,2.79,22.48.52,9.49-8.86,11.59-8.86,11.59Z"></path><path class="cls-4" d="M249.75,379.65c-2.69,0-5.65-.86-8.21-2.47-4.42-2.78-6.5-8.04-6.59-8.27-.02-.05-.03-.1-.04-.15l-2.55-15.76c-1.37.27-3.48.33-5.13-.73-1.39-.89-2.19-2.38-2.39-4.43-.45-4.53,2.3-5.63,3.98-5.88,1.07-.17,2.05-.05,2.55.03.2.03.37.14.49.31.09.13.19.26.3.38.1.11.19.21.3.3.49.45,1.26.71,1.62.39.23-.2.32-.63.42-1.12.99-5.55,1.65-10.49-.31-14.79-.11-.24-.09-.52.06-.73.08-.12.16-.25.25-.38l.06-.1c.13-.2.25-.41.38-.61.2-.33.41-.67.62-.99.02-.03.04-.05.06-.08.72-1.07,1.75-2.3,3.31-2.55,2.65-.44,2.79-.42,4.78.55.8.39,1.53.82,2.24,1.24,1.85,1.09,3.59,2.12,6.32,2.2,2.61.08,5.79-.85,7.72-2.25.17-.12.39-.17.59-.13.21.04.39.17.49.35.42.71.76,1.37,1.04,2.03.65,1.45,1.1,3.02,1.34,4.67,1.65,11.12,2.59,18.71,2.8,22.55.47,8.49-6.6,11.46-8.8,12.18.14,1.19.48,3.81.61,4.8.15,1.1.04,2.97-.7,4.91-.75,1.96-2.25,3.37-4.33,4.07-1,.33-2.12.5-3.28.5ZM236.38,368.44c.25.61,2.22,5.12,5.96,7.47,3.25,2.04,7.35,2.78,10.22,1.82,1.67-.56,2.81-1.63,3.4-3.18.64-1.68.73-3.3.62-4.18-.58-4.5-.67-5.31-.68-5.51-.02-.36.23-.68.58-.76.36-.08,8.76-2.09,8.28-10.82-.2-3.79-1.14-11.33-2.79-22.41-.22-1.51-.64-2.95-1.24-4.29-.17-.39-.35-.78-.57-1.18-2.2,1.34-5.29,2.14-7.95,2.08-3.12-.09-5.11-1.27-7.04-2.4-.68-.4-1.38-.82-2.13-1.18q-1.62-.79-3.88-.42c-.82.13-1.52.72-2.36,1.98-.02.02-.03.05-.05.07-.19.29-.37.58-.55.88-.13.21-.26.43-.39.63l-.06.09s-.03.05-.05.08c2.1,4.98,1.08,10.69.26,15.3-.11.6-.26,1.42-.9,1.98-1.05.93-2.65.48-3.62-.41-.14-.12-.27-.26-.4-.4-.08-.08-.15-.17-.22-.26-.42-.05-1.09-.09-1.78.02-2.08.31-2.97,1.71-2.72,4.25.15,1.57.73,2.68,1.71,3.31,1.61,1.04,3.93.61,4.68.35.21-.07.44-.05.63.07.19.11.32.3.35.52l2.66,16.49Z"></path></g><g><path class="cls-4" d="M265.11,348.6s-1.37-1.83-3.89-.91-5.1,1.52-7.85,1.07c-2.74-.46-9.75-1.36-12.8.12-3.64,1.77-2.32,9.84,1.79,13.04,4.01,3.12,13.22,5.73,19.69.32,5.73-4.79,5.03-11.12,3.05-13.64Z"></path><path class="cls-4" d="M253.04,366.1c-4.4,0-8.62-1.64-11.13-3.59-2.75-2.14-4.54-6.49-4.16-10.12.21-2.02,1.1-3.5,2.5-4.18,3.4-1.66,11-.56,13.25-.19,2.82.47,5.47-.31,7.47-1.03,2.4-.87,4.14.38,4.74,1.16,2.39,3.05,2.63,9.84-3.16,14.67-2.84,2.38-6.22,3.29-9.5,3.29ZM245.79,348.8c-2.02,0-3.78.21-4.88.74-1.18.57-1.55,1.94-1.66,2.99-.28,2.72.98,6.75,3.58,8.78,4,3.11,12.73,5.37,18.75.34,5.48-4.58,4.62-10.46,2.94-12.6,0,0,0,0,0,0-.11-.14-1.13-1.36-3.03-.67-2.17.79-5.06,1.63-8.23,1.1-2.38-.4-5.1-.69-7.47-.69Z"></path></g><g><path class="cls-4" d="M264.03,324.68c-.79.66-1.67,1.18-2.61,1.6-.29-.68-.62-1.32-.99-1.94-1.08,2.2-1.76,2.7-4.63,3.12-11.3,1.63-18.28-2.4-19.08,1.6-.84,4.19.11,12.53-.15,14.7-.52,4.23-2.97,2.44-2.97,2.44-.13-.14-2.22-3.31-2.33-3.47-.47-.08-1.36-.18-2.31-.03-.82-1.01-1.59-2.05-2.22-3.18-1.2-2.15-1.92-4.66-1.52-7.09.23-1.42.84-2.77.94-4.22.13-1.98-.66-4.02,0-5.89,3.07-8.77,10.1-9.44,12.13-10.75,1.77-1.15,4.04-1.12,6.13-.83,2.09.29,4.19.82,6.28.54,1.49-.2,2.88-.86,4.35-1.16,8.47-1.75,11.06,4.91,11.72,7.49.66,2.59-.66,5.37-2.72,7.08Z"></path><path class="cls-4" d="M234.71,347.33c-.82,0-1.47-.46-1.56-.52-.04-.03-.08-.06-.11-.1-.09-.1-.29-.39-1.88-2.77-.13-.2-.25-.38-.34-.51-.42-.05-1.08-.09-1.76.02-.26.04-.53-.06-.7-.27-.98-1.21-1.71-2.25-2.29-3.29-1-1.8-2.1-4.57-1.61-7.58.11-.64.28-1.26.45-1.86.22-.79.43-1.53.48-2.29.05-.7-.04-1.43-.12-2.19-.14-1.28-.29-2.6.16-3.9,2.55-7.26,7.66-9.22,10.72-10.38.72-.28,1.35-.51,1.71-.75,2.13-1.39,4.81-1.2,6.64-.94.47.07.95.14,1.43.22,1.61.27,3.13.52,4.64.32.78-.1,1.53-.35,2.33-.6.63-.2,1.29-.41,1.97-.55,9.29-1.92,11.99,5.66,12.6,8.03.68,2.66-.51,5.81-2.96,7.84h0c-.81.67-1.72,1.23-2.78,1.71-.18.08-.39.09-.58.01-.19-.07-.34-.22-.42-.41-.1-.23-.2-.45-.31-.68-.96,1.47-2.04,1.95-4.51,2.3-5.18.75-9.5.32-12.66.01-4.15-.41-5.52-.42-5.8.99-.51,2.54-.33,6.71-.19,10.07.09,2.07.16,3.71.05,4.58-.22,1.78-.81,2.89-1.76,3.3-.28.12-.57.17-.83.17ZM234.11,345.64c.16.09.54.27.84.14.19-.09.67-.46.87-2.11.09-.75.02-2.41-.06-4.34-.14-3.43-.32-7.71.22-10.42.57-2.86,3.44-2.58,7.42-2.19,3.08.3,7.3.72,12.3,0,2.7-.39,3.12-.8,4.06-2.71.12-.25.37-.41.64-.42.26-.04.53.13.67.37.27.45.5.89.71,1.31.65-.34,1.24-.73,1.76-1.17,1.68-1.39,3.09-3.88,2.47-6.31-.67-2.62-3.08-8.54-10.84-6.94-.6.12-1.2.31-1.82.51-.83.26-1.68.54-2.58.66-1.73.23-3.43-.05-5.08-.32-.47-.08-.93-.15-1.4-.22-2.53-.36-4.31-.14-5.61.71-.49.32-1.15.57-1.99.89-2.81,1.08-7.52,2.87-9.84,9.48-.34.98-.22,2.07-.09,3.23.09.8.18,1.62.13,2.46-.06.91-.3,1.76-.53,2.59-.16.59-.32,1.14-.41,1.7-.42,2.58.55,5.01,1.43,6.6.49.87,1.09,1.75,1.89,2.75.9-.08,1.69.01,2.11.08.2.03.37.14.49.31.03.05.25.37.54.81.48.72,1.43,2.15,1.7,2.53ZM264.03,324.68h0,0Z"></path></g><g><path class="cls-3" d="M255.52,338.31s3.02,6.77,2.9,8.71c-.13,1.94-2.69,2.74-2.69,2.74-1.2.51-5.26-1.31-5.26-1.31"></path><path class="cls-4" d="M255.18,350.6c-1.58,0-4.15-1.09-5.01-1.48-.38-.17-.54-.61-.38-.99.17-.38.61-.55.99-.38,2,.9,4.17,1.52,4.65,1.31.09-.03,2.14-.7,2.23-2.1.08-1.28-1.69-5.8-2.83-8.35-.17-.38,0-.82.38-.99.37-.17.82,0,.99.38.32.71,3.1,6.99,2.96,9.06-.16,2.43-3.08,3.37-3.21,3.41-.21.09-.48.13-.78.13Z"></path></g><g><path class="cls-4" d="M241.75,360.33s4.11,5.45,14.9,4.5l.59,4.82s-12.1,3.05-15.49-9.33Z"></path><path class="cls-4" d="M254.1,370.72c-4.06,0-10.67-1.43-13.07-10.19-.09-.35.07-.71.39-.87.32-.16.71-.07.93.22.05.07,4.06,5.1,14.23,4.21.39-.04.76.25.81.66l.59,4.82c.05.38-.19.73-.56.82-.04,0-1.39.33-3.33.33ZM243.45,362.81c3.44,7.23,10.72,6.62,12.96,6.25l-.42-3.42c-6.28.4-10.29-1.32-12.53-2.82Z"></path></g><ellipse class="cls-4" cx="246.3" cy="337.72" rx="1.59" ry="2.32" transform="translate(-29.32 23.47) rotate(-5.15)"></ellipse><ellipse class="cls-4" cx="258.54" cy="336.97" rx="1.42" ry="2.07" transform="translate(-29.2 24.56) rotate(-5.15)"></ellipse><g><path class="cls-3" d="M230.57,345.12s-2.68,1.8-1.66,4.53"></path><path class="cls-4" d="M228.91,350.4c-.3,0-.59-.19-.7-.49-.97-2.6.85-4.68,1.95-5.41.35-.23.81-.14,1.04.21s.14.81-.2,1.04c-.09.06-2.18,1.52-1.38,3.64.15.39-.05.82-.44.97-.09.03-.18.05-.26.05Z"></path></g></g><g><path class="cls-4" d="M246.91,364.29c3.3,1.15,7.39,1.58,11.15.24"></path><path class="cls-3" d="M253.07,366.11c-2.67,0-4.97-.62-6.41-1.12-.39-.14-.6-.56-.46-.96.14-.39.56-.6.96-.46,2.14.75,6.37,1.77,10.65.24.39-.14.82.06.96.45s-.06.82-.45.96c-1.81.65-3.6.88-5.25.88Z"></path></g><g><path class="cls-4" d="M247.45,354.26s2.7,4.02,6.86,3.64c4.16-.38,5.78-4.28,5.78-4.28"></path><path class="cls-3" d="M253.74,358.68c-4.18,0-6.8-3.83-6.91-4-.23-.34-.14-.81.2-1.04.35-.23.81-.14,1.04.2.02.04,2.52,3.65,6.17,3.31,3.64-.33,5.09-3.68,5.15-3.82.16-.38.6-.56.98-.4.38.16.56.6.4.98-.07.18-1.85,4.32-6.4,4.74-.21.02-.43.03-.63.03Z"></path></g></g></g><path class="cls-4" d="M274.3,396.86h-53c-.41,0-.75-.34-.75-.75v-103.74c0-.41.34-.75.75-.75h53c.41,0,.75.34.75.75v103.74c0,.41-.34.75-.75.75ZM222.05,395.36h51.5v-102.24h-51.5v102.24Z"></path></g><g><g><path class="cls-3" d="M300.21,363.22l.77-4.45s3.87-15.68.97-16.26-6,13.74-6,13.74c0,0-5.81-14.71-6.77-11.61-.97,3.1,2.89,14.89,2.89,14.89l1.26,3.9"></path><path class="cls-4" d="M293.33,364.18c-.32,0-.61-.2-.71-.52l-1.26-3.9c-.4-1.23-3.9-12.11-2.89-15.34.26-.83.84-.95,1.08-.95,1.3-.05,3.38,3.41,6.22,10.3,1.23-5.03,3.54-12.54,6.34-11.99.3.06.74.25,1.08.78,1.77,2.79-.91,14.14-1.47,16.39l-.76,4.4c-.07.41-.46.68-.87.61-.41-.07-.68-.46-.61-.87l.77-4.45c1.24-5.02,2.77-13.54,1.67-15.28-.04-.06-.08-.11-.11-.11-.82-.17-3.16,4.11-5.12,13.16-.07.32-.34.56-.67.59-.35.03-.64-.17-.76-.47-1.83-4.64-4.26-9.85-5.43-11.25-.37,2.94,1.97,10.99,2.96,14.02l1.26,3.91c.13.39-.09.82-.48.94-.08.02-.15.04-.23.04Z"></path></g><g><path class="cls-3" d="M284.1,360.51c.66-1.61,5.47-3.29,7.79-3.48s3.29,6.97,3.29,6.97h-11.23s-.52-1.87.15-3.48Z"></path><path class="cls-4" d="M295.18,364.75h-11.23c-.34,0-.63-.23-.72-.55-.02-.09-.58-2.14.17-3.97,0,0,0,0,0,0,.9-2.18,6.38-3.78,8.42-3.95,2.85-.26,3.85,5.77,4.1,7.61.03.21-.04.43-.18.59-.14.16-.35.26-.56.26ZM284.57,363.25h9.73c-.49-2.75-1.49-5.47-2.32-5.47-.01,0-.02,0-.03,0-2.36.2-6.69,1.88-7.16,3.02-.36.87-.3,1.85-.22,2.45Z"></path></g><g><path class="cls-3" d="M302.29,361.04c-1.42-.98-9.05-2.66-11.56-.92s-.85,2.77,1.02,3.24c1.87.47,10.53.32,10.53.32,0,0,1.44-1.66.02-2.65Z"></path><path class="cls-4" d="M299.25,364.46c-2.73,0-6.46-.06-7.69-.37-1.71-.43-2.67-1.12-2.84-2.06-.23-1.28,1.13-2.22,1.58-2.53,2.86-1.98,10.88-.15,12.42.92.54.37.86.88.93,1.46.15,1.15-.71,2.17-.81,2.29-.14.16-.34.26-.55.26-.32,0-1.53.02-3.04.02ZM302.28,363.69h0,0ZM294.19,360.11c-1.27,0-2.38.17-3.04.63-.83.58-.97.94-.95,1.03.02.12.38.54,1.72.87,1.39.35,7.34.34,9.96.31.15-.24.31-.59.28-.87-.01-.1-.06-.25-.3-.42h0c-.84-.58-4.69-1.55-7.67-1.55Z"></path></g></g></g></svg>